<svg width="64" height="73" viewBox="0 0 64 73" fill="none" xmlns="http://www.w3.org/2000/svg">
<path d="M19.8473 28.9133L9.83139 34.1358V23.1576L19.8473 17.9351V28.9133Z" fill="#D33E27"/>
<path d="M19.8473 17.9508L9.83137 23.1734L0 18.0136L10.0159 12.7911L19.8473 17.9508Z" fill="#F05525"/>
<path d="M42.1038 16.2932L32.0711 21.5314V10.5531L42.1038 5.31494V16.2932Z" fill="#0095C1"/>
<path d="M42.1038 5.33061L32.0711 10.5688L22.2565 5.39334L32.2724 0.170837L42.1038 5.33061Z" fill="#2BA1DB"/>
<path d="M64 28.945L53.9841 34.1675V23.1892L64 17.9667V28.945Z" fill="#E7A023"/>
<path d="M64 17.9824L53.9841 23.2049L44.1527 18.0452L54.1686 12.8226L64 17.9824Z" fill="#FCB915"/>
<path d="M20.2019 54.2169L10.186 59.4551V48.4611L20.2019 43.2386V54.2169Z" fill="#D33E27"/>
<path d="M20.2019 43.2543L10.186 48.4768L0.354652 43.3171L10.3706 38.0946L20.2019 43.2543Z" fill="#F05525"/>
<path d="M63.8515 54.3717L53.8356 59.6099V48.6159L63.8515 43.3934V54.3717Z" fill="#E7A023"/>
<path d="M63.8512 43.409L53.8353 48.6315L44.0039 43.4718L54.0198 38.2493L63.8512 43.409Z" fill="#FCB915"/>
<path d="M42.0567 41.5175L32.024 46.7557V35.7618L42.0567 30.5393V41.5175Z" fill="#68B245"/>
<path d="M42.0563 30.555L32.0236 35.7932L22.209 30.6177L32.2249 25.3952L42.0563 30.555Z" fill="#80BD42"/>
<path d="M41.8603 66.7899L31.8444 72.0124V61.0342L41.8603 55.796V66.7899Z" fill="#0095C1"/>
<path d="M41.8604 55.8117L31.8444 61.0498L22.0131 55.8901L32.029 50.6519L41.8604 55.8117Z" fill="#2BA1DB"/>
</svg>
