<svg width="189" height="71" viewBox="0 0 189 71" fill="none" xmlns="http://www.w3.org/2000/svg">
<path d="M0 30.3884C0.101352 30.1785 0.263107 30.0505 0.294137 29.8963C0.478764 28.9787 0.614775 28.0513 0.814227 27.1373C0.851292 26.9675 1.1028 26.844 1.25534 26.6992C1.30345 26.8792 1.3637 27.0569 1.39778 27.2394C1.73216 29.0308 0.667422 30.6332 0.751116 32.5144C0.460299 32.3051 0.268617 32.1671 0.0384678 32.0829C-4.53206e-09 31.577 0 31.0176 0 30.3884Z" fill="#B37D3E"/>
<path d="M0 35.8379C0.144355 35.9029 0.401618 36.0283 0.415686 36.1765C0.564701 37.747 0.675021 39.3209 0.796001 40.8939C0.699734 40.9192 0.603467 40.9443 0.5072 40.9694C0.375657 40.5739 0.244115 40.1785 0.056286 39.8201C-9.06413e-09 38.5411 0 37.2251 0 35.8379Z" fill="#A97941"/>
<path d="M35.4256 35.006C38.2387 33.0176 40.9392 30.954 43.7714 29.0889C47.0257 26.9457 50.393 24.9723 53.7275 22.9516C53.9045 22.8443 54.2897 22.8991 54.4772 23.0262C54.8437 23.2744 55.1388 23.6269 55.5932 24.06C55.0915 24.5048 54.5868 24.9938 54.0398 25.4302C51.4216 27.5187 48.7941 29.5957 46.1653 31.6708C44.5301 32.9615 42.8716 34.2233 41.2528 35.5338C40.4607 36.1751 39.7297 36.8922 38.9806 37.5853C37.5325 38.9248 36.072 40.2517 34.6522 41.6204C32.8965 43.3127 31.082 44.953 29.8718 47.1267C29.0664 48.5734 29.7392 49.7428 31.3826 49.88C34.0118 50.0997 36.4823 49.4242 38.9723 48.7819C41.0633 48.2426 43.0652 47.4522 44.8921 46.3315C47.6138 44.662 49.9888 42.5969 51.4099 39.649C51.8578 38.7196 52.2343 37.756 52.6365 36.8051C53.3255 35.1762 53.171 33.5231 52.7243 31.8791C52.536 31.1867 52.284 30.5053 51.9939 29.8484C51.7641 29.3287 51.7408 28.9977 52.2671 28.5938C53.781 27.432 55.2381 26.1965 56.7064 24.9767C57.3731 24.4228 57.4815 24.4287 57.9625 25.2271C59.1129 27.1366 59.7302 29.1984 59.9361 31.4242C60.2293 34.5929 59.3658 37.4759 57.8422 40.17C56.8515 41.9218 55.4938 43.4141 54.0553 44.8545C52.0945 46.818 49.9754 48.5771 47.6912 50.1168C46.0693 51.2098 44.293 52.088 42.5392 52.9703C40.534 53.9792 38.3828 54.6684 36.1669 54.9381C34.3813 55.1555 32.5484 55.1609 30.7567 54.6759C29.1673 54.2456 27.7123 53.5464 26.4838 52.4867C25.6131 51.7355 25.3098 50.5967 25.1006 49.4916C24.5148 46.3977 25.8687 43.903 27.8214 41.7381C29.2237 40.1833 30.8987 38.8702 32.4725 37.4721C33.4186 36.6318 34.4035 35.835 35.4256 35.006Z" fill="#666666"/>
<path d="M34.6827 65.6171C33.1819 65.2682 31.7248 64.9991 30.3253 64.5511C28.4804 63.9606 26.8855 62.9088 25.3765 61.6851C23.9555 60.5328 22.8148 59.1634 21.8913 57.6291C20.5855 55.4595 19.5438 53.1623 19.4737 50.5676C19.4281 48.8732 19.3578 47.1674 19.5032 45.4842C19.5985 44.3809 19.9915 43.2847 20.372 42.2284C21.0344 40.3897 21.8455 38.6204 22.9512 36.9828C24.9461 34.0283 27.2319 31.359 30.1722 29.2959C31.7689 28.1756 33.3188 26.9729 35.1745 26.2791C35.5281 26.1469 35.8961 26.0529 36.3262 26.0757C35.9595 26.385 35.5958 26.698 35.2255 27.0029C34.3073 27.7587 33.3349 28.4575 32.4769 29.2756C30.8737 30.8041 29.2117 32.2988 27.805 33.9973C26.3371 35.7699 25.129 37.7475 24.1657 39.8718C22.95 42.5523 22.7002 45.3736 22.8431 48.2246C22.9645 50.6433 23.5618 53.0155 24.9701 55.0376C26.2121 56.8207 27.826 58.2878 29.8942 59.0834C31.4676 59.6886 33.0834 60.2912 34.735 60.5559C36.1239 60.7784 37.6046 60.6125 39.0213 60.4345C40.558 60.2414 42.1112 59.9672 43.5778 59.4876C45.3014 58.9239 46.9742 58.1711 48.6037 57.3688C49.9452 56.7083 51.2364 55.9209 52.4701 55.0742C54.7942 53.4792 57.0082 51.728 58.8783 49.6103C60.8201 47.4111 62.6691 45.1308 64.5654 42.8914C64.7672 42.653 65.0137 42.452 65.2395 42.2335C65.3198 42.2853 65.4003 42.337 65.4807 42.3888C65.0753 43.2544 64.6833 44.1264 64.2614 44.984C63.6869 46.1513 63.1265 47.3281 62.4919 48.4631C61.8473 49.6158 61.1061 50.7145 60.4317 51.8511C58.9342 54.3748 56.9971 56.5403 54.8177 58.4741C52.3906 60.6274 49.7642 62.5016 46.6078 63.5019C45.2494 63.9323 43.9264 64.4867 42.5509 64.8471C41.2195 65.1958 39.8502 65.4549 38.4815 65.5914C37.2497 65.7142 35.996 65.6173 34.6827 65.6171Z" fill="#F8931F"/>
<path d="M38.1384 19.9729C41.0461 19.1395 43.9549 18.7866 46.9106 18.9652C49.4856 19.1208 51.9326 19.7419 54.2186 21.3358C53.4301 21.8353 52.7215 22.2999 51.9975 22.7392C50.763 23.488 49.5536 24.2917 48.26 24.9228C47.7974 25.1484 47.0786 25.0746 46.5503 24.9073C44.0968 24.1302 41.6194 24.0746 39.1067 24.4739C35.2963 25.0799 31.9997 26.8367 28.9814 29.12C26.4479 31.0365 24.1399 33.2085 22.4425 35.9347C21.6215 37.2531 20.6823 38.5334 20.0977 39.9539C19.4122 41.6198 18.9163 43.3941 18.5877 45.1674C18.1369 47.5989 18.343 50.0317 19.0775 52.4251C19.5944 54.1095 20.2173 55.7291 21.166 57.2187C21.281 57.3993 21.3493 57.6091 21.4393 57.8054C21.3844 57.8422 21.3294 57.879 21.2745 57.9158C20.9451 57.4427 20.5575 56.9993 20.2973 56.4911C19.5063 54.9463 18.6374 53.4227 18.0439 51.8017C17.5711 50.5104 17.4126 49.0952 17.2013 47.7218C17.0645 46.8341 17.0644 45.9229 17.0376 45.0212C16.9464 41.9498 17.6091 39.0165 18.8047 36.208C20.1631 33.0166 21.8974 30.0654 24.473 27.657C26.8917 25.3956 29.5534 23.4593 32.462 21.9079C33.9301 21.125 35.5056 20.4383 37.2325 20.294C37.5216 20.27 37.7985 20.1004 38.1384 19.9729Z" fill="#666666"/>
<path d="M19.5438 5.91016C19.675 6.62163 18.9034 6.33569 18.674 6.6774C18.5712 6.83055 18.2605 6.82768 18.0906 6.95651C16.9612 7.81338 16.9641 8.3209 18.1799 9.2849C17.4188 9.89831 16.6776 10.4996 15.9314 11.0946C15.7186 11.2644 15.3756 11.3706 15.2915 11.5839C15.0305 12.2455 14.599 11.9495 14.2587 11.7903C13.0121 11.2073 12.9103 9.81593 13.963 8.89703C15.3237 7.70914 16.8014 6.73221 18.5115 6.12919C18.8084 6.02452 19.1321 5.99516 19.4995 5.9255C19.5558 5.92 19.5438 5.91016 19.5438 5.91016Z" fill="#E69026"/>
<path d="M38.6684 4.05777C39.7164 4.56077 40.0451 5.04466 39.8919 5.91988C39.3179 5.80515 38.7424 5.69017 38.167 5.57518C38.1556 5.62547 38.1442 5.67576 38.1326 5.72606C38.4573 5.82362 38.7957 5.89088 39.1018 6.02901C39.3183 6.12675 39.4914 6.32038 39.6839 6.47121C39.4152 6.74022 39.0752 7.28254 38.8893 7.23439C37.5681 6.892 36.278 6.43015 34.9801 5.99992C34.9238 5.98126 34.8885 5.89976 34.8056 5.80371C34.9823 5.64715 35.1774 5.51738 35.3157 5.34287C35.6247 4.95289 35.5737 4.58194 35.1286 4.34073C34.5392 4.02118 33.9603 3.69125 33.2232 3.77374C32.9457 3.80479 32.6382 3.57027 32.3809 3.36857C34.5588 2.93125 36.5909 3.48311 38.6684 4.05777Z" fill="#EE9023"/>
<path d="M32.2965 13.6211C32.5526 13.6824 32.8547 13.7072 32.9329 13.852C33.4566 14.823 33.9328 15.8195 34.4752 16.9097C33.1902 17.2377 32.008 17.5481 30.8188 17.8285C30.7107 17.854 30.4703 17.7129 30.4382 17.6055C30.1374 16.6016 29.8585 15.5907 29.6033 14.5744C29.5709 14.445 29.6845 14.1591 29.7756 14.1378C30.5908 13.9474 31.4163 13.8001 32.2965 13.6211Z" fill="#DC8A2B"/>
<path d="M23.5742 17.4852C23.589 16.845 23.5616 16.2675 23.6428 15.7057C23.6711 15.5089 23.9407 15.2403 24.1437 15.1941C24.8188 15.0405 25.513 14.9684 26.2011 14.874C26.7516 14.7986 27.091 14.8834 27.0906 15.5999C27.0899 16.4066 27.3041 17.2116 27.3471 18.0215C27.3577 18.2236 27.0969 18.5941 26.9141 18.6267C25.8428 18.8173 24.7575 18.9304 23.5747 19.083C23.5747 18.5811 23.5747 18.0677 23.5742 17.4852Z" fill="#D7882D"/>
<path d="M12.5903 57.1641C12.0932 56.3728 11.6338 55.6236 11.0586 54.6855C12.0741 54.7711 12.8547 54.8354 13.6347 54.9049C13.7306 54.9134 13.8299 54.9856 13.9172 54.9702C14.8904 54.7972 15.4201 55.2741 15.8051 56.1153C16.1596 56.89 16.6296 57.6123 17.0489 58.3576C17.0134 58.4449 16.978 58.5322 16.9426 58.6194C15.7509 58.4449 14.5483 58.3204 13.3755 58.0613C13.0775 57.9956 12.8745 57.5026 12.5903 57.1641Z" fill="#7B6C5B"/>
<path d="M35.8484 13.838C35.6018 13.4529 35.3951 13.1074 35.1855 12.7571C36.0607 12.3883 36.8151 12.045 37.5915 11.7616C37.7794 11.693 38.121 11.7411 38.254 11.8733C39.0203 12.6346 39.7534 13.43 40.4755 14.2339C40.5873 14.3583 40.5836 14.5855 40.6405 14.7912C39.7539 15.1293 38.909 15.398 38.1137 15.7713C37.45 16.0828 37.1456 15.7766 36.8381 15.2744C36.5445 14.7949 36.2067 14.3421 35.8484 13.838Z" fill="#DE8B2B"/>
<path d="M21.2024 15.6771C21.1318 16.4626 21.0042 17.212 20.871 17.9602C20.8496 18.0806 20.7977 18.1954 20.7694 18.315C20.6912 18.6455 20.7131 19.1798 20.5238 19.268C20.0719 19.4786 19.524 19.5182 19.0096 19.5541C18.3939 19.597 17.7729 19.5641 17.0098 19.5641C17.4118 18.2807 17.74 17.1379 18.147 16.0237C18.2177 15.8301 18.6156 15.6624 18.8726 15.6466C19.6268 15.6004 20.3859 15.6366 21.2024 15.6771Z" fill="#D7882D"/>
<path d="M12.4782 47.8808C12.8737 48.9676 13.2802 50.0509 13.645 51.1478C13.6757 51.2401 13.4223 51.5511 13.3097 51.5465C12.2467 51.5035 11.1862 51.4052 10.1239 51.3405C9.14932 51.2813 9.2396 50.4043 8.99625 49.8336C8.70872 49.1594 8.57753 48.419 8.43945 47.6523C8.83599 47.7973 9.15768 48.0271 9.51064 48.1897C10.0095 48.4195 10.5171 48.6576 11.0469 48.7869C11.7914 48.9685 12.0201 48.2188 12.4782 47.8808Z" fill="#887052"/>
<path d="M7.32399 41.3793C7.25465 40.9519 7.18532 40.5247 7.10938 40.0566C8.50631 40.1569 9.76309 40.2296 11.0139 40.3596C11.1623 40.3751 11.3463 40.6865 11.3946 40.8891C11.4918 41.297 11.5069 41.7245 11.541 42.261C11.3935 42.6477 11.2704 42.9228 11.1252 43.1857C10.995 43.4214 10.8934 43.7292 10.6869 43.856C9.99962 44.2779 8.46051 43.5588 8.17048 42.8041C7.97527 42.296 7.61205 41.8519 7.32399 41.3793Z" fill="#9D784C"/>
<path d="M15.6895 25.7727C15.7881 25.0631 15.8598 24.3479 16.0047 23.6478C16.0407 23.4737 16.3032 23.2359 16.4795 23.2195C17.4541 23.1294 18.4349 23.1094 19.4121 23.0438C20.0137 23.0035 20.3562 23.1315 20.0816 23.828C20.0297 23.9597 20.0709 24.1277 20.0312 24.3048C19.5449 23.7368 19.5371 24.2357 19.4584 24.5462C18.9471 26.5621 18.9477 26.5577 17.2105 26.537C16.7629 26.5317 16.3548 26.5309 16.2144 25.9636C16.1895 25.8631 15.8719 25.8345 15.6895 25.7727Z" fill="#C78536"/>
<path d="M3.86261 49.3681C3.56829 48.9634 3.23529 48.6267 3.0843 48.2224C2.92187 47.7874 2.9238 47.339 2.27857 47.2901C2.13492 47.2792 1.99784 46.8134 1.90761 46.5407C1.58869 45.577 1.2836 44.6086 0.995891 43.6353C0.960108 43.5142 1.0601 43.3533 1.09718 43.2109C1.19471 43.3103 1.33346 43.3927 1.38271 43.5119C1.6057 44.0516 1.80341 44.6015 1.98886 45.0914C2.19744 45.0421 2.43949 44.8994 2.58677 44.9658C3.07993 45.1879 3.5514 45.4659 4.0062 45.7607C4.22162 45.9003 4.46918 46.0948 4.55006 46.319C4.9859 47.5266 5.37397 48.7512 5.81216 50.0713C4.9838 50.2325 4.52382 49.5683 3.86261 49.3681Z" fill="#8E7150"/>
<path d="M1.83613 30.3346C2.17039 29.1801 2.16979 29.181 3.1952 29.8091C3.32049 29.8859 3.4496 29.9813 3.58835 30.0071C4.2556 30.131 4.34581 30.5912 4.24631 31.1337C4.03246 32.2994 3.7945 33.4609 3.52604 34.83C2.95389 34.5325 2.43697 34.2433 1.90255 33.9909C1.13606 33.629 1.36414 33.0544 1.49869 32.452C1.64959 31.7763 1.72119 31.0829 1.83613 30.3346Z" fill="#B37D3E"/>
<path d="M7.32617 33.4972C7.40659 32.7672 7.48702 32.0372 7.58019 31.1914C8.23119 31.2626 8.7892 31.3109 9.3433 31.3873C10.0679 31.4874 10.7894 31.6097 11.4963 31.8233C11.2071 32.45 10.8119 32.9482 10.6849 33.5069C10.3754 34.8693 10.3937 34.8731 9.04304 34.8791C8.27905 34.8824 8.0519 34.4518 7.90678 33.8361C7.84257 33.5637 7.84066 33.0582 7.32617 33.4972Z" fill="#B37E41"/>
<path d="M3.80805 42.139C3.85048 42.6133 3.90057 43.021 3.95188 43.4386C2.69393 43.4475 1.71551 42.7339 1.50268 41.6224C1.2711 40.4132 1.11861 39.1889 0.931641 37.971C1.01365 37.9267 1.09566 37.8823 1.17767 37.8379C1.92671 38.2412 2.6834 38.6315 3.41528 39.0636C3.50887 39.1189 3.47503 39.3913 3.49702 39.5635C3.60385 40.3997 3.70958 41.2361 3.80805 42.139Z" fill="#9E7648"/>
<path d="M6.49612 23.7718C6.19534 24.4783 5.92838 25.1394 5.67671 25.8063C5.51286 26.2405 5.27096 26.2789 4.86393 26.0822C3.3309 25.3414 3.32625 25.3532 4.08704 23.7C4.46577 22.8771 4.8404 22.0524 5.23735 21.1836C5.82704 21.4748 6.38412 21.7194 6.90215 22.0288C7.02027 22.0993 7.08303 22.4185 7.03288 22.5809C6.91057 22.9768 6.70716 23.3478 6.49612 23.7718Z" fill="#C88334"/>
<path d="M50.1555 16.7293C50.322 16.9479 50.4379 17.1379 50.5816 17.3041C51.0818 17.8823 50.97 18.3018 50.1756 18.3171C49.3974 18.3319 48.6029 18.1174 47.837 17.9202C47.3016 17.7822 46.7294 17.597 46.3048 17.2659C45.71 16.8022 45.8098 16.4371 46.4546 16.0929C47.0989 15.749 47.7336 15.3871 48.51 14.957C49.0256 15.5127 49.5717 16.1012 50.1555 16.7293Z" fill="#D9892E"/>
<path d="M8.99805 25.7727C9.27579 24.8652 9.53201 23.9497 9.85711 23.0593C9.90027 22.9409 10.2952 22.9014 10.5244 22.9091C11.0932 22.9282 11.6596 23.0214 12.2284 23.0382C13.3025 23.07 13.3029 23.0564 12.9594 24.0523C12.5145 23.6961 12.3367 23.9871 12.2047 24.2706C12.0669 24.5666 11.9797 24.8865 11.878 25.1984C11.4064 26.6461 11.402 26.6708 9.93714 26.3489C9.59809 26.2743 9.30973 25.9709 8.99805 25.7727Z" fill="#C78536"/>
<path d="M58.3864 23.1707C58.0071 23.7979 58.0071 23.7979 57.4172 22.7771C57.0921 23.0065 56.7702 23.2336 56.3866 23.5041C55.8942 23.071 55.3889 22.6264 54.8203 22.1263C55.4002 21.82 55.8962 21.5578 56.3803 21.3019C56.1623 20.9505 55.9668 20.6351 55.6604 20.1406C56.9794 20.2212 58.0894 20.2889 59.4285 20.3706C59.0727 21.3312 58.7418 22.2244 58.3864 23.1707Z" fill="#666666"/>
<path d="M53.6614 15.634C53.3074 15.929 53.0193 16.2265 52.6963 16.4796C52.639 16.5246 52.4056 16.4177 52.3049 16.3253C51.4672 15.5571 50.6416 14.7757 49.8398 14.0242C50.2211 13.5376 50.5413 13.1875 50.792 12.7934C51.0654 12.3633 51.351 12.3501 51.6959 12.6648C52.5653 13.458 53.4286 14.2578 54.3191 15.0778C54.0854 15.2883 53.9004 15.455 53.6614 15.634Z" fill="#DC8A2B"/>
<path d="M17.0655 62.2434C16.6739 61.8992 16.3046 61.6103 15.9784 61.2793C15.8839 61.1834 15.8814 60.9616 15.9052 60.8081C15.9124 60.7619 16.1539 60.7197 16.2834 60.7301C17.0512 60.7919 17.8292 60.8128 18.5797 60.9651C18.9897 61.0482 19.4004 61.307 19.726 61.5851C20.3387 62.1087 20.8901 62.7036 21.5898 63.3891C19.8118 63.6533 18.321 63.5321 17.0655 62.2434Z" fill="#71695F"/>
<path d="M15.082 32.4378C15.082 32.2151 15.082 31.9922 15.082 31.584C16.6353 31.584 18.171 31.584 19.7506 31.584C19.7301 31.6276 19.6565 31.7841 19.4766 31.9686C18.5716 32.0719 18.2637 32.7053 17.9102 33.2802C17.6876 33.6421 17.5387 34.0654 17.2576 34.3702C17.0457 34.5995 16.6377 34.8457 16.3882 34.7865C16.1566 34.7316 15.9803 34.2987 15.8532 34.001C15.7589 33.7803 15.8483 33.4746 15.7382 33.2695C15.5738 32.9633 15.3059 32.7123 15.082 32.4378Z" fill="#B37E41"/>
<path d="M8.24264 16.7379C8.86512 16.0006 9.44651 15.3011 10.0592 14.6297C10.2123 14.4618 10.5252 14.2386 10.6627 14.2937C11.0855 14.463 11.5116 14.7064 11.8139 15.0334C11.8877 15.1134 11.5214 15.6437 11.3085 15.9311C10.7502 16.6843 10.1803 17.4304 9.57837 18.1488C9.44895 18.3033 9.14576 18.4298 8.95694 18.3933C8.60533 18.3253 8.23566 18.1815 7.96075 17.9611C7.82808 17.8549 7.84314 17.494 7.88552 17.2657C7.91784 17.0917 8.09848 16.945 8.24264 16.7379Z" fill="#D7882D"/>
<path d="M15.0711 32.5137C15.3058 32.7179 15.5737 32.9688 15.7381 33.2749C15.8482 33.4802 15.7588 33.7859 15.8531 34.0066C15.9802 34.3043 16.1565 34.7373 16.3881 34.7921C16.6376 34.8512 17.0456 34.6052 17.2573 34.3758C17.5387 34.071 17.6875 33.6478 17.9102 33.2857C18.2636 32.7109 18.5715 32.0774 19.4271 32C19.0606 32.8914 18.6375 33.7853 18.2126 34.6783C18.181 34.745 18.1114 34.8019 18.1015 34.8695C17.888 36.3438 16.8306 36.3059 15.71 36.245C15.2285 36.2188 15.0354 36.092 15.0495 35.5944C15.078 34.5915 15.0595 33.5876 15.0711 32.5137Z" fill="#A97941"/>
<path d="M46.8594 8.64981C46.1208 8.30116 45.4733 7.81798 44.7522 7.65195C43.9962 7.47786 43.8281 6.96776 43.8439 6.44497C43.856 6.04075 43.6576 6.03201 43.4488 5.93319C42.9188 5.68239 42.3831 5.44381 41.8496 5.20033C41.8581 5.12244 41.8668 5.04453 41.8753 4.96662C42.1211 4.96662 42.3963 4.89382 42.608 4.97843C43.9894 5.53046 45.358 6.11418 46.7271 6.69631C46.8356 6.74239 46.9866 6.84657 46.9974 6.9378C47.0745 7.5947 47.8836 7.64601 48.0375 8.20049C48.114 8.47561 48.0509 8.78919 48.0509 9.23447C47.5947 9.00098 47.2565 8.82785 46.8594 8.64981Z" fill="#EE9023"/>
<path d="M43.8439 9.67221C43.4763 9.43819 43.1547 9.23811 42.7988 9.01667C43.0595 8.67976 43.2071 8.37031 43.4527 8.20608C43.6764 8.05646 44.0688 7.92939 44.2791 8.02572C45.3091 8.4977 46.3071 9.04062 47.3054 9.57859C47.4347 9.64825 47.6119 9.89384 47.5778 9.95739C47.35 10.3825 47.1304 10.8488 46.7787 11.153C46.6401 11.2729 46.1379 11.0679 45.8558 10.9125C45.1831 10.5415 44.5431 10.112 43.8439 9.67221Z" fill="#E38C27"/>
<path d="M6.87891 16.4512C6.9298 16.0873 6.98412 15.773 7.08069 15.4719C7.67935 13.6062 9.33783 12.5993 10.5678 11.247C10.7419 11.0555 11.0605 10.9945 11.3122 10.873C11.3545 10.9405 11.3969 11.008 11.4392 11.0755C11.0178 11.5397 10.5932 12.0011 10.1778 12.4706C10.1019 12.5563 9.98772 12.7222 10.0187 12.7711C10.5136 13.5535 9.99318 14.0375 9.5213 14.5428C8.92011 15.1865 8.32869 15.8395 7.72249 16.4784C7.47074 16.7439 7.19622 17.1265 6.87891 16.4512Z" fill="#DE8B2B"/>
<path d="M7.31644 33.5624C7.84122 33.0563 7.84314 33.5619 7.90734 33.8343C8.05246 34.4498 8.27961 34.8805 9.0436 34.8772C10.3943 34.8713 10.376 34.8675 10.6855 33.5051C10.8125 32.9464 11.2076 32.4482 11.5096 31.8809C11.4578 33.2268 11.3773 34.6143 11.2874 36.1623C9.97575 36.0245 8.76283 35.9299 7.56086 35.7588C6.84495 35.6569 7.20254 35.0434 7.17272 34.6527C7.14709 34.3168 7.25648 33.9708 7.31644 33.5624Z" fill="#A97941"/>
<path d="M30.6932 11.071C30.0377 11.2257 29.4455 11.3888 28.8463 11.5203C28.7291 11.546 28.4957 11.4822 28.4666 11.404C28.1451 10.5404 27.8535 9.66582 27.5332 8.73444C27.8018 8.68626 27.8944 8.66994 27.9867 8.65299C28.4909 8.56053 29.1838 8.21944 29.4598 8.42741C30.0232 8.85173 30.3637 9.57056 30.7921 10.1707C30.878 10.2909 30.934 10.4333 31.026 10.5477C31.3382 10.9359 31.0454 10.9993 30.6932 11.071Z" fill="#E38C27"/>
<path d="M25.0102 12.1737C23.934 12.3815 23.8954 12.3488 24.0248 11.4301C24.08 11.0386 24.1274 10.6459 24.186 10.2549C24.3151 9.39352 25.4818 8.71553 26.1986 9.16802C26.4541 9.32926 26.5522 9.84127 26.5957 10.208C26.6603 10.7529 26.6124 11.311 26.6124 11.9929C26.0825 12.0455 25.5767 12.0956 25.0102 12.1737Z" fill="#E38C27"/>
<path d="M34.2669 9.91492C34.0351 10.0213 33.8476 10.081 33.6691 10.161C33.2533 10.3475 32.9709 10.3924 32.6022 9.93049C32.0603 9.25182 31.3359 8.71784 30.4805 7.92976C31.2756 7.72313 31.9834 7.28917 32.447 7.47141C33.3803 7.83826 34.188 8.53044 35.021 9.12521C35.0844 9.17052 34.9955 9.55788 34.8733 9.69293C34.7593 9.81907 34.5067 9.82092 34.2669 9.91492Z" fill="#E69026"/>
<path d="M23.1586 10.035C22.8696 10.803 22.6217 11.5195 22.3441 12.2244C22.2889 12.3645 22.1237 12.555 22.0021 12.5604C21.2873 12.5922 20.5705 12.576 19.6348 12.576C20.2975 11.4893 20.7362 10.4982 21.4327 9.7433C21.7773 9.36995 22.597 9.43171 23.3141 9.27148C23.248 9.64657 23.2185 9.813 23.1586 10.035Z" fill="#E38C27"/>
<path d="M7.31641 41.4453C7.6151 41.849 7.97831 42.293 8.17352 42.8011C8.46355 43.5559 10.0027 44.275 10.69 43.8531C10.8965 43.7263 10.9981 43.4185 11.1282 43.1827C11.2735 42.9199 11.3966 42.6448 11.5473 42.3244C11.7045 43.07 11.8613 43.8643 11.96 44.6657C11.9718 44.7614 11.6572 45.0076 11.5112 44.9944C10.3985 44.8937 9.28556 44.7725 8.18412 44.5895C7.96686 44.5534 7.67312 44.2462 7.63074 44.0232C7.47353 43.1962 7.4066 42.352 7.31641 41.4453Z" fill="#937149"/>
<path d="M19.6228 9.41016C19.9675 9.44886 20.247 9.48737 20.6973 9.54943C19.9453 10.4918 19.3024 11.2907 18.6672 12.0957C18.1492 12.7522 16.9173 12.8098 16.2246 12.144C17.0954 11.2765 17.9534 10.3951 18.8501 9.55469C18.9994 9.41479 19.3176 9.45371 19.6228 9.41016Z" fill="#E38C27"/>
<path d="M27.9896 22.4395C27.836 22.7188 27.7402 23.0595 27.5188 23.2675C26.3825 24.3358 25.2143 25.3705 24.0551 26.4147C24.0038 26.4609 23.9315 26.4839 23.7598 26.5768C23.6954 25.402 23.6348 24.2922 23.6348 23.1295C23.9418 23.2492 24.2473 23.3767 24.4214 23.604C24.7391 24.0186 25.0469 23.9128 25.4141 23.7254C26.2686 23.2892 27.1307 22.8671 27.9896 22.4395Z" fill="#BF7E35"/>
<path d="M8.41847 56.6434C7.81719 56.0147 7.22988 55.4468 6.7082 54.8242C6.29337 54.329 5.94865 53.7738 5.59535 53.2307C5.50141 53.0863 5.49046 52.8883 5.44141 52.7148C5.60751 52.747 5.78398 52.7535 5.9381 52.8153C7.25307 53.3426 8.2011 54.2478 8.85123 55.5107C9.14692 56.0852 9.5967 56.5809 9.97658 57.1123C9.91764 57.1792 9.8587 57.2463 9.79974 57.3135C9.35341 57.1024 8.90708 56.8916 8.41847 56.6434Z" fill="#7B6C5B"/>
<path d="M15.6782 25.8311C15.8716 25.8294 16.1893 25.8579 16.2141 25.9583C16.3545 26.5258 16.7626 26.5266 17.2102 26.5319C18.9474 26.5526 18.947 26.557 19.4582 24.541C19.537 24.2304 19.5448 23.7316 20.0197 24.3621C20.0049 24.8615 19.9473 25.3236 19.9269 25.7873C19.9062 26.2583 19.9223 26.7309 19.9223 27.2667C18.7429 27.381 17.6284 27.5328 16.5093 27.5841C15.5226 27.6293 15.337 27.3588 15.5193 26.3846C15.5505 26.2178 15.6169 26.0575 15.6782 25.8311Z" fill="#BF7E35"/>
<path d="M38.0535 8.0692C37.2466 8.68133 36.5021 9.04102 35.5777 8.31286C35.0662 7.91014 34.3948 7.71317 33.8098 7.39718C33.5995 7.28353 33.431 7.09296 33.2578 6.9495C34.5431 5.55451 35.6149 6.8821 36.7434 7.05463C37.1893 7.12279 37.6096 7.39554 38.021 7.61378C38.0953 7.65318 38.0689 7.88074 38.0535 8.0692Z" fill="#E69026"/>
<path d="M23.4668 66.017C22.6744 65.8121 21.916 65.6981 21.202 65.4549C20.2527 65.1316 19.3378 64.7081 18.4082 64.3275C18.4205 64.2489 18.4327 64.1703 18.445 64.0918C18.6272 64.0739 18.8334 63.992 18.9873 64.0494C19.6599 64.2997 20.3065 64.6229 20.9864 64.8476C21.2068 64.9203 21.5044 64.717 21.7597 64.7352C23.5433 64.8626 25.1947 65.4151 26.8918 66.391C25.6159 66.6934 24.5633 66.4289 23.4668 66.017Z" fill="#6B6862"/>
<path d="M12.1348 18.1867C12.6125 17.395 13.0711 16.5907 13.5822 15.821C13.7001 15.6433 13.9969 15.4893 14.2122 15.4884C14.7764 15.4856 15.344 15.5529 15.9044 15.6327C16.2755 15.6854 16.3745 15.89 15.9739 16.2119C15.0552 16.1952 14.8418 16.8225 14.5502 17.3812C13.8894 18.6478 13.4404 18.7914 12.1348 18.1867Z" fill="#D9892E"/>
<path d="M8.97191 25.8229C9.30929 25.9711 9.59765 26.2745 9.93669 26.3491C11.4015 26.671 11.406 26.6463 11.8776 25.1986C11.9792 24.8867 12.0665 24.5668 12.2043 24.2708C12.3362 23.9873 12.5141 23.6963 12.9101 24.0825C12.7304 25.1349 12.5401 26.1529 12.2914 27.1565C12.2592 27.2868 11.9236 27.4254 11.7329 27.4195C10.9071 27.3939 10.0796 27.3442 9.25934 27.2477C8.66176 27.1775 8.30821 26.918 8.79575 26.2824C8.88035 26.172 8.89776 26.0106 8.97191 25.8229Z" fill="#BF7E35"/>
<path d="M39.9811 10.7516C40.3629 10.5492 40.8445 10.4315 41.1055 10.1264C41.6072 9.54018 41.9825 9.74005 42.4661 10.1041C43.2275 10.6773 44.0237 11.2045 44.8067 11.8447C43.899 12.2468 43.017 12.6893 42.1764 11.7044C41.631 11.0656 40.8292 10.8626 39.9805 10.9329C39.9805 10.9329 39.9902 10.9267 39.9884 10.8855C39.9847 10.8134 39.9829 10.7825 39.9811 10.7516Z" fill="#E69026"/>
<path d="M53.1305 11.3466C53.8737 12.0179 54.7816 12.4829 54.9914 13.5302C55.0108 13.6263 55.039 13.7227 55.0412 13.8194C55.0425 13.8889 55.0073 13.9592 54.9419 14.2013C54.6608 14.0479 54.4 13.949 54.192 13.7841C53.369 13.1323 52.5071 12.5139 51.7745 11.7707C51.4372 11.4285 51.3652 10.827 51.1719 10.3408C51.8285 10.1257 51.8285 10.1257 53.1305 11.3466Z" fill="#E38C27"/>
<path d="M3.34387 23.3449C3.28356 23.515 3.25932 23.649 3.18235 23.737C3.03062 23.9104 2.84964 24.0586 2.68075 24.2172C2.59702 24.0065 2.46266 23.8015 2.4379 23.5841C2.29286 22.3106 3.16788 21.3907 3.62121 20.3259C3.77925 19.9547 4.03418 19.6218 4.26643 19.2862C4.33338 19.1896 4.4755 19.1444 4.65578 19.0293C4.71445 19.8805 4.94321 20.6036 4.38724 21.3356C3.94776 21.9141 3.69295 22.632 3.34387 23.3449Z" fill="#C88334"/>
<path d="M12.0862 18.2118C13.44 18.791 13.889 18.6474 14.5498 17.3808C14.8414 16.8221 15.0548 16.1948 15.9249 16.2363C15.5775 17.2243 15.1965 18.2246 14.7389 19.1889C14.6553 19.3649 14.2567 19.4794 14.0079 19.4723C13.52 19.4584 13.0353 19.3379 12.549 19.2631C11.5446 19.1086 11.5445 19.1089 12.0862 18.2118Z" fill="#D0852B"/>
<path d="M39.9883 10.9896C40.8311 10.8657 41.6328 11.0686 42.1781 11.7075C43.0187 12.6923 43.9008 12.2498 44.836 11.8922C45.2711 12.1493 45.4133 12.3747 44.7889 12.6454C44.2679 12.8713 43.8208 13.2619 43.3232 13.5488C43.207 13.6158 42.9623 13.6247 42.8723 13.5485C41.9019 12.7263 40.9507 11.8817 39.9883 10.9896Z" fill="#DC8A2B"/>
<path d="M12.4718 47.8211C12.0177 48.2142 11.789 48.9639 11.0444 48.7823C10.5147 48.6531 10.007 48.4149 9.50821 48.1851C9.15527 48.0226 8.83358 47.7928 8.44384 47.5883C8.32049 47.4137 8.25121 47.2438 8.1582 47.0156C9.54018 47.1179 10.8196 47.1995 12.0946 47.326C12.2323 47.3397 12.344 47.6131 12.4718 47.8211Z" fill="#927A57"/>
<path d="M27.9828 22.3751C27.1313 22.8658 26.2694 23.2879 25.4148 23.7241C25.0477 23.9115 24.7399 24.0173 24.4222 23.6027C24.2481 23.3754 23.9426 23.2479 23.6465 23.0611C23.6916 22.8963 23.7677 22.6322 23.884 22.6133C24.9996 22.4325 26.1204 22.2782 27.2439 22.1538C27.4788 22.1278 27.731 22.2555 27.9828 22.3751Z" fill="#CA8A3B"/>
<path d="M10.9582 58.9551C11.8169 59.4814 12.6328 59.9902 13.4163 60.5444C14.1885 61.0905 14.928 61.6826 15.6818 62.2547C15.6394 62.3356 15.597 62.4165 15.5545 62.4974C15.0996 62.3072 14.5936 62.1895 14.1996 61.9132C13.0629 61.1159 11.967 60.2602 10.8723 59.4056C10.8055 59.3533 10.8881 59.1113 10.9582 58.9551Z" fill="#71695F"/>
<path d="M28.9466 66.5196C27.8613 66.3405 26.8543 65.7244 26.6426 65.1501C27.3502 64.918 29.7536 65.7727 30.328 66.5199C29.8501 66.5199 29.4313 66.5199 28.9466 66.5196Z" fill="#6B6862"/>
<path d="M16.0528 42.4991C15.9927 42.8054 15.9486 43.0484 15.9045 43.2914C15.8399 43.3006 15.7753 43.31 15.7106 43.3193C15.2912 42.4558 15.7079 41.446 15.2012 40.5117C15.6668 40.5117 15.9279 40.5117 16.2824 40.5117C16.2094 41.1686 16.139 41.8021 16.0528 42.4991Z" fill="#9E7648"/>
<path d="M29.5901 3.64384C29.6722 3.21884 29.9599 3.07026 30.3567 3.06676C30.8305 3.06259 31.308 3.02666 31.7758 3.0786C31.9146 3.09401 32.0255 3.35927 32.1491 3.51005C32.1201 3.57243 32.091 3.63481 32.0622 3.69718C31.2811 3.64664 30.5001 3.59611 29.6462 3.59383C29.5734 3.6421 29.5845 3.64457 29.5901 3.64384Z" fill="#F8931F"/>
<path d="M29.8805 66.823C30.0998 66.8739 30.2625 66.9225 30.4252 66.971C30.4141 67.0587 30.403 67.1463 30.3921 67.234C29.7859 67.234 29.1799 67.234 28.5 67.234C28.7943 66.7298 28.7943 66.7298 29.8805 66.823Z" fill="#6B6862"/>
<path d="M32.1992 67.428C31.8382 67.4269 31.5422 67.4269 31.0547 67.4269C31.2592 67.1494 31.3804 66.8638 31.4796 66.8712C31.9347 66.9052 32.3836 67.0209 32.8348 67.1073C32.8243 67.1907 32.8137 67.2742 32.8032 67.3577C32.6236 67.3815 32.444 67.4054 32.1992 67.428Z" fill="#666666"/>
<path d="M21.6625 58.1434C21.58 58.1467 21.5311 58.1144 21.4824 58.082C21.5536 58.0905 21.6249 58.099 21.6625 58.1434Z" fill="#666666"/>
<path d="M64.1738 21.1309C64.2134 21.1566 64.2616 21.2243 64.3185 21.3336C64.2789 21.3076 64.2308 21.2402 64.1738 21.1309Z" fill="#AA844D"/>
<path d="M39.9458 10.7734C39.9835 10.7873 39.9854 10.8182 39.9866 10.8956C39.9606 10.8915 39.9353 10.841 39.9458 10.7734Z" fill="#DC8A2B"/>
<path d="M53.7937 48.8027C53.7991 48.8253 53.768 48.8662 53.7072 48.9326C53.7043 48.9126 53.7308 48.8668 53.7937 48.8027Z" fill="#72736B"/>
<path d="M59.9908 62.8921C78.4218 45.9253 72.2831 25.5247 66.91 17.4453C71.9283 26.3832 75.1218 44.4862 59.3065 59.8624C46.6542 72.1633 29.1458 70.2898 22.2012 67.5883C38.3207 75.587 54.2627 67.6388 59.9908 62.8921Z" fill="url(#paint0_linear_226_470)"/>
<path d="M66.3029 20.093C72.994 35.0601 67.0126 47.6387 63.1854 52.0572C73.952 31.4545 62.3997 15.3463 55.2777 9.86752C44.6936 0.0510123 30.7943 0.424686 25.1677 1.83858L25.0156 1.53548C47.9023 -5.05437 61.8168 11.1551 66.3029 20.093Z" fill="url(#paint1_linear_226_470)"/>
<path d="M64.1719 29.5556C63.9286 21.4357 59.0015 16.5779 56.5684 15.1641C61.4955 19.7693 62.7779 26.3237 62.8033 29.0253C61.8909 38.7964 61.1305 40.5385 53.9072 48.4917C48.1285 54.8543 38.7761 57.0003 34.8223 57.2781C46.258 58.0053 55.2504 50.4611 58.3172 46.5981C60.3702 44.3005 64.4152 37.6754 64.1719 29.5556Z" fill="url(#paint2_linear_226_470)"/>
<path d="M26.7637 7.62109C26.8248 7.62109 26.8858 7.62109 26.9469 7.63624C26.8706 7.62109 26.8095 7.62109 26.7637 7.62109Z" fill="#EDAB5E"/>
<path d="M25.5527 4.72778C25.7504 4.43995 26.0242 4.60659 26.2675 4.60659C26.3587 5.04591 26.6172 4.72778 26.7389 4.68233C27.1343 4.47025 27.4992 4.25816 27.9402 4.57629C28.0163 4.63688 28.2292 4.63688 28.3052 4.57629C28.6398 4.31876 28.9287 4.48539 29.2024 4.66718C29.3545 4.77322 29.5066 4.77323 29.6282 4.72778C29.978 4.60659 29.9476 5.1065 30.2365 5.0762C30.2517 5.0762 30.2669 5.1065 30.2821 5.1368C30.2973 5.1974 30.0236 5.89425 29.9476 5.89425C29.6739 5.92454 29.537 6.10633 29.3545 6.30327C29.1264 6.5305 28.7614 6.43961 28.4573 6.34872C28.1379 6.25782 27.8186 6.18208 27.4992 6.12148C27.3928 6.10633 27.2255 6.06089 27.2255 6.27297C26.9366 6.45476 26.6781 6.33357 26.6324 6.07603C26.602 5.8185 26.891 5.86395 27.0887 5.8791C27.2711 5.89425 27.0887 5.83365 27.0887 5.8185C26.9974 5.37918 27.408 5.50037 27.5144 5.33374C27.0278 5.72761 26.45 5.31859 25.8721 5.40948C25.6744 5.43978 25.6288 5.22769 25.7352 5.09135C25.9633 4.77323 25.5831 4.86412 25.5527 4.72778Z" fill="#EEA44E"/>
<path d="M21.7521 7.29849C21.4936 7.28334 21.3111 7.46513 21.0982 7.55602C20.8853 7.66206 20.8397 7.60147 20.7941 7.25304C20.7941 7.23789 20.8245 7.2076 20.8245 7.2076C20.7485 7.04096 20.6572 6.66223 20.6876 6.57134C20.7029 6.52589 20.7029 6.435 20.7181 6.435C21.2503 6.38955 21.448 5.70785 22.0411 5.76845C22.2388 5.79874 22.3604 5.6927 22.4973 5.57151C22.8014 5.28368 23.0904 5.23823 23.5466 5.29883C23.7139 5.32913 23.8963 5.29883 24.0788 5.29883C24.1549 5.29883 24.2157 5.35942 24.2005 5.45032C24.3526 5.57151 24.1853 5.73815 24.2461 5.87449C24.6111 6.54104 24.5198 6.73798 23.7443 6.96521C23.7443 6.85917 23.6986 6.81372 23.5922 6.81372C23.5618 6.76828 23.5314 6.72283 23.5314 6.66223C23.501 6.63194 23.4553 6.61679 23.3945 6.63194C23.3337 6.64708 23.2881 6.66223 23.2272 6.69253C22.9535 6.81372 22.6646 6.90462 22.3756 6.96521C22.33 6.96521 22.2692 6.96521 22.2236 6.96521C22.1779 7.02581 22.1171 7.05611 22.0715 7.1167C22.0259 7.1167 21.965 7.1167 21.9194 7.1167C21.8586 7.2076 21.7978 7.23789 21.7521 7.29849Z" fill="#EA9533"/>
<path d="M25.5539 4.72852C25.7516 4.72852 25.9493 4.72852 26.147 4.72852C25.9645 4.9103 25.8124 5.06179 25.6451 5.21328C25.9037 5.47081 25.9949 5.25873 26.1166 5.15269C26.2382 5.01635 26.3599 4.9709 26.4815 5.13754C26.7249 5.45567 27.0594 5.41022 27.3483 5.27388C27.5764 5.15269 27.7589 5.24358 27.9718 5.24358C27.6373 5.37992 27.2875 5.42537 27.0746 5.72835C27.1811 5.91013 27.4244 5.6829 27.5156 5.89498C27.2267 6.01618 26.9225 5.87984 26.5272 6.01618C26.8313 6.07677 26.9682 6.28886 27.2115 6.24341C27.2571 6.24341 27.3179 6.24341 27.3635 6.24341C27.4396 6.3343 27.5917 6.30401 27.6677 6.3949C27.7133 6.3949 27.7741 6.3949 27.8198 6.3949C27.8958 6.48579 28.0479 6.4555 28.1239 6.54639C28.1695 6.54639 28.2304 6.54639 28.276 6.54639C28.3064 6.57669 28.3216 6.60698 28.3064 6.65243C28.2912 6.68273 28.276 6.69788 28.276 6.69788C28.0327 6.95541 27.7285 7.00086 27.4548 6.83422C27.0442 6.60698 26.6488 6.37975 26.1166 6.18281C26.3599 6.63728 26.8009 6.80392 26.9225 7.21294C26.8617 7.25839 26.8161 7.30384 26.7857 7.30384C26.5728 7.31898 26.3751 7.30384 26.1774 7.40988C26.1166 7.44018 25.7668 6.81907 25.6908 6.56154C25.6604 6.45549 25.5843 6.34945 25.5387 6.24341C25.3866 6.12222 25.4627 5.97073 25.4627 5.83439C25.4627 5.77379 25.4627 5.7132 25.4475 5.66775C25.4018 5.56171 25.3106 5.47081 25.3866 5.33447C25.3866 5.12239 25.417 4.9103 25.5539 4.72852Z" fill="#EEA44E"/>
<path d="M23.7267 7.00122C24.0461 6.78914 24.335 6.53161 24.5327 6.16803C24.2742 6.03169 24.0157 6.13773 23.7876 6.07714C23.6811 5.9408 23.8484 5.92565 23.894 5.86505C23.9244 5.8196 24.0157 5.80446 24.0765 5.78931C24.259 5.74386 24.1677 5.59237 24.1829 5.48633C24.2894 5.48633 24.3806 5.48633 24.4871 5.48633C24.7304 5.56207 24.9433 5.65297 24.9889 5.9408C25.0193 6.13773 24.9281 6.27407 24.7912 6.39526C24.5631 6.68309 24.3198 6.95578 24.1069 7.2739C23.8636 7.66778 23.4834 7.91016 22.9512 7.68292C23.2249 7.45569 23.4074 7.16786 23.7267 7.00122Z" fill="#EB9C42"/>
<path d="M24.9453 5.9401C24.7933 5.78861 24.6412 5.63712 24.4891 5.48563C24.5347 5.47048 24.5804 5.45533 24.6108 5.44019C24.5956 5.40989 24.5804 5.36444 24.55 5.34929C24.0025 5.06146 24.0025 5.06146 24.0177 5.00087C24.0481 4.90997 24.6868 4.83423 24.8541 4.89482C24.9301 4.92512 24.9149 5.01602 24.9453 5.07661C25.0214 5.27355 25.1734 5.37959 25.4016 5.34929C25.3863 5.48563 25.4928 5.48563 25.584 5.50078C25.6601 5.51593 25.7209 5.56138 25.7057 5.65227C25.5232 5.83406 25.2647 5.84921 25.0518 5.95525C25.0214 5.9401 24.9758 5.9401 24.9453 5.9401Z" fill="#F2B773"/>
<path d="M25.2521 7.45569C25.0088 7.60718 25.0088 7.60718 24.4766 7.59203C24.583 7.16786 24.7351 6.77399 24.948 6.39527C24.9632 6.27407 25.0088 6.12258 25.1457 6.10744C25.313 6.07714 25.3434 6.22863 25.3282 6.34982C25.2977 6.71339 25.4042 7.09212 25.2521 7.45569Z" fill="#EA9533"/>
<path d="M23.7278 6.55255C23.6821 6.65859 23.6213 6.74948 23.5757 6.85552C23.2715 6.99186 23.0282 7.2494 22.7849 7.46148C22.4656 7.71901 22.1766 7.8402 21.7812 7.71901C21.8269 7.58267 21.9181 7.49178 22.0702 7.46148C22.1158 7.40089 22.1766 7.37059 22.2223 7.30999C22.2679 7.30999 22.3287 7.30999 22.3743 7.30999C22.4199 7.26455 22.4808 7.20395 22.5264 7.1585C22.7241 6.79493 23.1499 6.77978 23.4388 6.55255C23.5301 6.46165 23.6213 6.46165 23.7278 6.55255Z" fill="#E99D47"/>
<path d="M25.248 7.45207C25.2328 7.01276 25.2328 6.57344 25.2175 6.13412C25.2175 6.11897 25.1871 6.10382 25.1719 6.08867C25.0199 6.13412 25.1871 6.42195 24.9438 6.39165C24.8982 6.39165 24.8374 6.39165 24.7917 6.39165C24.7157 6.19471 24.9286 6.10382 24.9438 5.93718C25.1871 5.83114 25.4152 5.6342 25.7042 5.78569C25.689 5.95233 25.4761 6.04322 25.5521 6.24016C25.4 6.22501 25.4 6.33105 25.4 6.4371C25.4 6.70978 25.4 6.98246 25.4 7.27029C25.4 7.36118 25.4 7.46722 25.248 7.45207Z" fill="#F2B773"/>
<path d="M23.4258 6.54195C23.3954 6.70859 23.2738 6.78433 23.1369 6.84493C22.924 6.95097 22.7111 7.04186 22.5134 7.14791C22.5134 7.04186 22.4678 6.99642 22.3613 6.99642C22.6655 6.72374 23 6.51165 23.4258 6.54195Z" fill="#EA9533"/>
<path d="M28.1381 6.54407C28.0165 6.51377 27.8492 6.61981 27.834 6.39258C27.9556 6.42288 28.1229 6.31683 28.1381 6.54407Z" fill="#F4BA78"/>
<path d="M27.683 6.39563C27.5614 6.36533 27.3941 6.47137 27.3789 6.24414C27.5006 6.27444 27.6678 6.1684 27.683 6.39563Z" fill="#F4BA78"/>
<path d="M28.293 6.69641C28.293 6.65096 28.293 6.59037 28.293 6.54492C28.3693 6.54492 28.4304 6.56007 28.4151 6.65096C28.4151 6.66611 28.3388 6.68126 28.293 6.69641Z" fill="#F4BA78"/>
<path d="M22.0566 7.14954C22.0566 7.04349 22.1025 6.99805 22.2094 6.99805C22.2094 7.10409 22.1635 7.14954 22.0566 7.14954Z" fill="#EA9533"/>
<path d="M21.752 7.30774C21.752 7.2017 21.7978 7.15625 21.9047 7.15625C21.9047 7.26229 21.8589 7.30774 21.752 7.30774Z" fill="#EA9533"/>
<path d="M22.514 7.15625C22.514 7.26229 22.4682 7.30774 22.3613 7.30774C22.3613 7.2017 22.4071 7.15625 22.514 7.15625Z" fill="#EA9533"/>
<path d="M22.2094 7.30469C22.2094 7.41073 22.1635 7.45618 22.0566 7.45618C22.0566 7.35013 22.1025 7.30469 22.2094 7.30469Z" fill="#EA9533"/>
<path d="M23.7294 6.54371C23.623 6.54371 23.5317 6.54371 23.4253 6.54371C23.4101 6.40737 23.5165 6.37707 23.6078 6.39222C23.6838 6.40737 23.7446 6.45281 23.7294 6.54371Z" fill="#EA9533"/>
<path d="M25.7057 5.79283C25.4319 5.76253 25.219 6.02006 24.9453 5.94432C25.067 5.52014 25.4167 5.67163 25.7057 5.64134C25.7057 5.68678 25.7057 5.74738 25.7057 5.79283Z" fill="#FEFEFE"/>
<path d="M88.7506 27.7876C89.6841 26.8644 90.5633 25.8773 91.5646 25.0341C92.8631 23.9408 95.1656 24.3289 95.6074 25.7959C95.8816 26.7065 95.6811 27.8112 95.499 28.7928C95.2745 30.0022 94.8577 31.1773 94.5035 32.3612C94.3355 32.9231 94.3773 33.5758 94.8726 33.7519C95.3527 33.9224 96.1167 33.8514 96.5285 33.5636C98.1368 32.4395 98.8933 30.6653 99.7595 28.9862C99.873 28.7665 100.129 28.6198 100.319 28.4393C100.434 28.6818 100.616 28.9165 100.646 29.1692C100.676 29.4237 100.624 29.7368 100.492 29.954C99.7508 31.1711 99.0737 32.4456 98.1866 33.5507C97.0108 35.0156 95.2882 35.9962 93.4714 35.3993C92.4972 35.0792 91.7887 34.1669 91.8614 33.1607C91.9271 32.2521 92.109 31.348 92.2934 30.453C92.4575 29.6571 92.7142 28.8807 92.89 28.0868C92.9478 27.8256 92.939 27.5187 92.8594 27.2639C92.592 26.407 91.5977 26.2739 90.9257 27.0774C90.1042 28.0596 89.3825 29.1254 88.6316 30.165C88.2152 30.7412 87.7952 31.3188 87.4346 31.9296C86.9763 32.7058 86.5412 33.5001 86.1607 34.3165C85.7129 35.2774 84.7133 35.5635 83.9334 34.8386C83.3731 34.318 83.7457 33.6552 83.9064 33.1014C84.5327 30.944 85.2293 28.8071 85.8814 26.6569C85.9518 26.4248 85.9414 26.15 85.9008 25.9061C85.7365 24.9191 85.0474 24.551 84.3011 25.1718C83.202 26.0859 82.169 27.0944 81.2081 28.1528C80.4383 29.0008 79.7335 29.9339 79.1526 30.9187C78.4787 32.0608 77.9416 33.2875 77.4075 34.5046C77.1946 34.9897 77.0713 35.4743 76.4069 35.3945C75.3445 35.2669 74.9484 34.9468 74.9717 34.2039C74.9832 33.8371 75.0352 33.4608 75.1391 33.1094C75.8176 30.8142 76.5199 28.5259 77.2019 26.2318C77.3 25.9017 77.3184 25.5492 77.3943 25.2115C77.6139 24.2332 78.9133 23.5989 79.7494 24.1058C79.9558 24.2307 80.1183 24.6075 80.113 24.8646C80.099 25.5554 79.9848 26.2442 79.9068 26.9335C79.8826 27.1471 79.8469 27.3595 79.7941 27.7295C80.6334 26.7379 81.3611 25.8682 82.0995 25.0076C83.1221 23.8158 84.2644 22.7858 85.8098 22.2999C86.7978 21.9892 87.8452 22.1869 88.3831 22.992C88.6743 23.4279 88.7689 24.0556 88.7817 24.6008C88.8042 25.5737 88.6974 26.5494 88.5968 27.6147C88.534 27.8227 88.5192 27.9401 88.4894 28.1763C88.6226 27.9781 88.6866 27.8829 88.7506 27.7876Z" fill="#8E8E8E"/>
<path d="M106.904 25.9843C107.115 24.3622 107.296 22.805 107.554 21.2609C107.664 20.5968 108.75 20.5124 109.44 21.0243C110.335 21.6872 110.355 22.5894 110.192 23.5355C110.046 24.3813 109.836 25.216 109.617 26.2258C110.107 25.577 110.453 25.0189 110.897 24.5553C111.559 23.8647 112.206 23.0986 113.011 22.6175C114.777 21.5628 118.04 21.6916 118.904 24.2189C119.48 25.9022 119.345 27.6315 118.628 29.3041C118.078 30.5895 117.351 31.7727 116.408 32.7762C115.197 34.0657 113.642 34.8424 111.907 35.2521C110.93 35.4827 109.968 35.4973 109.046 35.0894C108.8 34.9807 108.639 34.6819 108.439 34.4705C108.673 34.3759 108.905 34.2023 109.14 34.1987C111.883 34.157 113.861 32.7982 115.24 30.561C116.068 29.2171 116.859 27.808 116.642 26.102C116.529 25.2131 116.194 24.4582 115.383 24.0398C114.647 23.6599 113.954 23.9271 113.275 24.3334C111.015 25.6874 109.576 27.7112 108.683 30.1057C108.239 31.2971 108.097 32.5999 107.814 33.8513C107.721 34.2623 107.629 34.6748 107.509 35.0787C107.089 36.4968 106.651 37.9099 106.229 39.3278C105.935 40.3187 105.693 41.327 105.357 42.3032C105.148 42.9095 104.861 43.5054 104.511 44.0423C104.107 44.661 103.339 44.5954 102.988 43.9396C102.693 43.3874 102.535 42.8242 102.782 42.1613C103.419 40.4522 104.087 38.745 104.561 36.9884C105.183 34.6798 105.644 32.3275 106.147 29.9883C106.428 28.6831 106.653 27.3662 106.904 25.9843Z" fill="#8E8E8E"/>
<path d="M184.511 33.4637C185.507 32.3725 186.492 31.3477 187.398 30.2576C187.75 29.8357 187.888 29.2452 188.192 28.7749C188.303 28.6036 188.61 28.5586 188.828 28.4559C188.886 28.6748 189.048 28.9322 188.985 29.1069C188.449 30.563 187.709 31.9241 186.602 33.0162C185.727 33.8798 184.758 34.6692 183.749 35.3734C182.179 36.4685 180.313 36.5892 178.554 36.2329C177.15 35.9487 176.319 34.7089 175.967 33.3019C175.567 31.7011 175.909 30.163 176.381 28.6094C176.801 27.2204 177.491 25.9871 178.425 24.9454C180.009 23.1785 182.245 21.5231 185 22.1965C186.047 22.4521 186.302 23.1903 186.494 24.0185C186.769 25.2087 186.605 26.2976 185.653 27.1993C185.192 27.6359 184.684 27.618 184.161 27.5065C183.588 27.3841 183.385 26.848 183.814 26.4697C184.457 25.9019 184.603 25.1687 184.757 24.4131C184.929 23.5661 184.445 23.1545 183.616 23.4087C182.351 23.7965 181.618 24.8229 180.82 25.745C179.491 27.2784 178.794 29.1281 178.438 31.0902C178.285 31.9382 178.267 32.8243 178.785 33.632C179.193 34.2675 179.676 34.6012 180.472 34.6759C181.988 34.8182 183.244 34.252 184.511 33.4637Z" fill="#8E8E8E"/>
<path d="M145.791 30.8199C146.322 29.4122 146.854 28.0659 147.302 26.6924C147.653 25.6176 146.728 24.1343 145.622 23.8047C144.581 26.0222 143.542 28.2338 142.493 30.4684C141.879 30.1638 141.769 29.8309 141.983 29.3537C142.853 27.4188 143.726 25.485 144.558 23.5341C144.674 23.2611 144.622 22.8851 144.56 22.5743C144.343 21.4848 144.435 20.4859 145.395 19.7754C145.639 19.5949 146.073 19.471 146.328 19.566C146.538 19.6442 146.655 20.0735 146.729 20.3683C146.771 20.5357 146.653 20.7487 146.591 20.9358C146.227 22.0224 146.401 22.3265 147.422 23.0118C148.295 23.5976 149.182 24.1823 149.651 25.2252C150.046 26.1043 150.072 26.9928 149.821 27.8505C149.408 29.2624 148.845 30.6305 148.379 32.028C148.261 32.3802 148.143 32.8132 148.247 33.1398C148.431 33.7238 149.33 33.9142 149.955 33.6398C152.256 32.6288 153.801 30.8641 154.977 28.7157C155.047 28.5899 155.279 28.4275 155.36 28.4615C155.509 28.5246 155.702 28.7232 155.698 28.8605C155.688 29.1717 155.653 29.5354 155.485 29.7793C154.872 30.6682 154.207 31.5231 153.546 32.3788C152.367 33.9062 150.835 34.8686 148.937 35.2939C147.854 35.5366 146.867 35.4006 146.087 34.6339C145.244 33.8063 145.203 32.7424 145.515 31.6527C145.59 31.3902 145.675 31.1304 145.791 30.8199Z" fill="#8E8E8E"/>
<path d="M130.18 35.2601C128.308 35.8681 126.438 34.5434 126.39 32.4681C126.374 31.7363 126.476 30.9696 126.694 30.2711C127.261 28.4482 127.84 26.6203 128.58 24.8633C128.939 24.0091 129.652 23.2969 130.236 22.544C130.544 22.1465 131.785 21.8699 132.211 22.1123C132.839 22.4689 132.693 23.0798 132.502 23.5801C132.257 24.223 131.912 24.8358 131.551 25.426C130.52 27.1117 129.467 28.7951 129.082 30.7604C128.948 31.4434 128.988 32.203 129.136 32.8871C129.309 33.6835 130.17 34.0512 130.956 33.7902C132.332 33.3331 133.425 32.526 134.162 31.2488C134.678 30.3551 135.25 29.4932 135.818 28.6312C135.889 28.5233 136.114 28.4288 136.23 28.4611C136.36 28.497 136.548 28.6962 136.535 28.8039C136.499 29.1147 136.387 29.4198 136.282 29.719C135.567 31.749 134.201 33.2977 132.471 34.4959C131.853 34.9245 130.995 35.0102 130.18 35.2601Z" fill="#8E8E8E"/>
<path d="M163.974 28.6452C163.688 29.7679 163.39 30.8313 163.189 31.9127C163.058 32.6218 163.321 33.2944 163.963 33.651C164.729 34.0774 165.478 33.7731 166.195 33.3789C167.99 32.3924 168.869 30.6545 169.88 29.0145C170.023 28.7808 170.323 28.6415 170.549 28.4587C170.575 28.7709 170.698 29.1137 170.612 29.3907C169.939 31.5218 168.621 33.2194 166.758 34.406C165.634 35.1223 164.314 35.6888 162.927 35.3289C160.887 34.7991 160.271 33.1727 160.669 31.1885C161.008 29.4893 161.522 27.792 162.214 26.2048C162.786 24.8951 163.4 23.542 164.561 22.5542C165.122 22.0775 165.736 21.9775 166.375 22.1011C166.937 22.2101 167.111 22.7029 166.916 23.2126C166.705 23.7633 166.413 24.2856 166.127 24.8043C165.427 26.0723 164.711 27.331 163.974 28.6452Z" fill="#8E8E8E"/>
<path d="M133.328 15.9632C133.683 15.829 133.994 15.6295 134.291 15.6476C134.804 15.6792 135.438 15.7008 135.779 16.0006C136.063 16.2509 136.154 16.927 136.06 17.3557C135.774 18.6643 133.613 19.3916 132.534 18.5549C132.256 18.3395 132 17.8605 132.032 17.5308C132.102 16.807 132.553 16.2598 133.328 15.9632Z" fill="#8E8E8E"/>
<path d="M166.903 18.7042C166.343 18.3792 166.009 17.8955 166.249 17.3783C166.488 16.8614 166.932 16.3967 167.386 16.0345C167.713 15.7736 168.212 15.5839 168.623 15.6051C169.147 15.6321 169.832 15.7539 170.139 16.1035C170.584 16.6106 170.391 17.3529 169.997 17.9C169.359 18.786 168.019 19.1203 166.903 18.7042Z" fill="#8E8E8E"/>
<path d="M77.7574 54.3336H75.5195V53.987L76.2391 53.727V49.3787L75.5195 49.1187V48.7721H77.7574V49.1187L77.0378 49.3787V53.727L77.7574 53.987V54.3336ZM88.1226 54.3336H87.395L84.825 49.9459V53.727L85.3707 53.987V54.3336H83.3068V53.987L84.0264 53.727V49.3787L83.3068 49.1187V48.7721H84.9279L87.3239 52.8842V49.3787L86.7782 49.1187V48.7721H88.8422V49.1187L88.1226 49.3787V54.3336ZM96.5599 54.3336H94.322V53.9082L95.0416 53.6483V49.3787L94.322 49.1187V48.7721H98.7978V50.0483H98.3866L98.1256 49.3708H95.8403V51.2457H97.6591L97.8093 50.7888H98.1731V52.3406H97.8093L97.6591 51.8128H95.8403V53.6483L96.5599 53.9082V54.3336ZM108.867 53.6325C108.334 54.1524 107.699 54.4124 106.961 54.4124C106.223 54.4124 105.587 54.1524 105.055 53.6325C104.528 53.1073 104.264 52.422 104.264 51.5765C104.264 50.7257 104.53 50.0351 105.063 49.5047C105.595 48.9691 106.228 48.7012 106.961 48.7012C107.693 48.7012 108.329 48.9691 108.867 49.5047C109.404 50.0351 109.673 50.7257 109.673 51.5765C109.673 52.422 109.404 53.1073 108.867 53.6325ZM105.126 51.5765C105.126 52.1963 105.29 52.7187 105.616 53.1441C105.949 53.5695 106.397 53.7822 106.961 53.7822C107.53 53.7822 107.978 53.5695 108.305 53.1441C108.632 52.7187 108.795 52.1963 108.795 51.5765C108.795 50.9516 108.632 50.4238 108.305 49.9931C107.978 49.5573 107.527 49.3393 106.953 49.3393C106.384 49.3393 105.935 49.5573 105.609 49.9931C105.287 50.4238 105.126 50.9516 105.126 51.5765ZM118.618 54.3336H116.38V53.987L117.1 53.727V49.3708H115.708L115.447 50.0483H114.957V48.7721H120.097V50.0483H119.606L119.345 49.3708H117.898V53.727L118.618 53.987V54.3336ZM129.889 54.3336H125.414V53.987L126.133 53.727V49.3787L125.414 49.1187V48.7721H129.889V50.0483H129.478L129.217 49.3708H126.932V51.2457H128.751L128.901 50.7888H129.265V52.3406H128.901L128.751 51.8128H126.932V53.7349H129.217L129.478 53.0575H129.889V54.3336ZM140.191 53.7979C139.638 54.2129 138.981 54.4203 138.222 54.4203C137.51 54.4203 136.894 54.1918 136.372 53.7349C136.119 53.5144 135.916 53.2255 135.763 52.8684C135.61 52.506 135.534 52.0964 135.534 51.6395C135.534 51.1826 135.613 50.7626 135.771 50.3791C135.934 49.9957 136.15 49.6833 136.419 49.4417C136.973 48.9429 137.621 48.6934 138.364 48.6934C138.923 48.6934 139.411 48.8062 139.827 49.0321V50.3161H139.179L139.037 49.4969C138.931 49.3813 138.712 49.3236 138.38 49.3236C137.753 49.3236 137.26 49.5416 136.902 49.9774C136.543 50.4132 136.364 50.9621 136.364 51.6238C136.364 52.2802 136.548 52.8054 136.917 53.1993C137.292 53.5878 137.763 53.7822 138.333 53.7822C138.602 53.7822 138.868 53.7428 139.132 53.664C139.395 53.5853 139.59 53.5065 139.717 53.4277L139.906 53.3095L140.191 53.7979ZM151.301 54.3336H149.063V53.987L149.783 53.727V51.7656H147.062V53.727L147.782 53.987V54.3336H145.544V53.987L146.264 53.727V49.3787L145.544 49.1187V48.7721H147.782V49.1187L147.062 49.3787V51.159H149.783V49.3787L149.063 49.1187V48.7721H151.301V49.1187L150.581 49.3787V53.727L151.301 53.987V54.3336ZM168.251 54.3336H163.774V53.987L164.495 53.727V49.3787L163.774 49.1187V48.7721H166.013V49.1187L165.294 49.3787V53.7349H167.579L167.839 53.0575H168.251V54.3336ZM178.031 54.3336H173.554V53.987L174.275 53.727V49.3787L173.554 49.1187V48.7721H175.793V49.1187L175.073 49.3787V53.7349H177.359L177.619 53.0575H178.031V54.3336ZM185.572 54.3336H183.334V53.987L184.055 53.727V49.3787L183.334 49.1187V48.7721H185.802C186.287 48.7721 186.716 48.9323 187.09 49.2527C187.464 49.5678 187.653 50.0142 187.653 50.5918C187.653 51.1643 187.475 51.6106 187.122 51.931C186.769 52.2461 186.328 52.4036 185.802 52.4036H184.853V53.727L185.572 53.987V54.3336ZM184.861 51.8286H185.429C185.841 51.8286 186.184 51.7262 186.457 51.5214C186.737 51.3165 186.877 51.004 186.877 50.5839C186.877 49.77 186.395 49.3629 185.429 49.3629H184.861V51.8286Z" fill="#F8931F" stroke="#F8931F" stroke-width="0.5"/>
<defs>
<linearGradient id="paint0_linear_226_470" x1="66.7579" y1="19.5454" x2="47.6472" y2="70.6993" gradientUnits="userSpaceOnUse">
<stop stop-color="#E9D7C1"/>
<stop offset="1" stop-color="#CDCFCF"/>
</linearGradient>
<linearGradient id="paint1_linear_226_470" x1="27.3727" y1="2.5781e-06" x2="64.4447" y2="50.7537" gradientUnits="userSpaceOnUse">
<stop stop-color="#F5DCBC"/>
<stop offset="1" stop-color="#D7D3CB"/>
</linearGradient>
<linearGradient id="paint2_linear_226_470" x1="59.5338" y1="18.1181" x2="40.2658" y2="59.0016" gradientUnits="userSpaceOnUse">
<stop stop-color="#EDDAC0"/>
<stop offset="1" stop-color="#D1D1CE"/>
</linearGradient>
</defs>
</svg>
