<svg width="200" height="50" viewBox="0 0 200 50" fill="none" xmlns="http://www.w3.org/2000/svg">
<path d="M4.60642 9.66553L10.5368 9.66606L2.4148 24.2568L4.60642 9.66553Z" fill="#7351FB"/>
<path fill-rule="evenodd" clip-rule="evenodd" d="M2.30313 25.0003L0 40.334H3.49859L12.0344 24.9998L22.0581 24.9998L13.5222 40.334H15.2689C15.2805 40.334 15.2921 40.3341 15.3036 40.3341C15.3221 40.3341 15.3406 40.3341 15.3591 40.334H15.4049C18.6964 40.3145 21.9166 39.2377 24.5733 37.232C27.8219 34.7795 29.9618 31.1387 30.5223 27.1105C31.0829 23.0823 30.0181 18.9967 27.5624 15.7525C25.6694 13.2519 23.0696 11.4091 20.13 10.4393L12.0246 25.0003L2.30313 25.0003ZM22.058 20.6751C23.1887 20.6751 24.1053 19.7597 24.1053 18.6305C24.1053 17.5013 23.1887 16.586 22.058 16.586C20.9273 16.586 20.0107 17.5013 20.0107 18.6305C20.0107 19.7597 20.9273 20.6751 22.058 20.6751Z" fill="#7351FB"/>
<path d="M46.5055 12.4053C48.1224 12.4966 49.6397 12.8959 51.0573 13.6032C52.497 14.3105 53.7373 15.2346 54.7784 16.3754C55.8415 17.5163 56.6722 18.8396 57.2702 20.3455C57.8904 21.8515 58.2005 23.46 58.2005 25.1713C58.2005 26.8597 57.9014 28.4455 57.3034 29.9286C56.7054 31.3889 55.8748 32.678 54.8116 33.796C53.7706 34.914 52.5413 35.8153 51.1237 36.4998C49.7061 37.1615 48.1667 37.538 46.5055 37.6292H40.8906V12.3711H46.5055V12.4053ZM46.5055 31.811C47.3694 31.7197 48.1667 31.4915 48.8977 31.1265C49.6508 30.7386 50.2931 30.248 50.8247 29.6548C51.3784 29.0615 51.8103 28.3884 52.1204 27.6355C52.4305 26.8597 52.5856 26.0383 52.5856 25.1713C52.5856 24.2814 52.4305 23.4372 52.1204 22.6386C51.8103 21.8172 51.3784 21.0985 50.8247 20.4824C50.2709 19.8436 49.6286 19.3302 48.8977 18.9423C48.1667 18.5316 47.3694 18.2806 46.5055 18.1894V31.811Z" fill="#1E1B30"/>
<path d="M75.1306 18.292H65.0968V22.091H73.2368L70.6811 27.8751H65.0968V31.8452H75.1306V37.6292H59.4819V12.5422L75.1306 12.508V18.292Z" fill="#1E1B30"/>
<path d="M92.9816 37.6292H78.4626V12.4738H84.0775V31.8452H92.9816V37.6292Z" fill="#1E1B30"/>
<path d="M110.399 18.292H100.365V22.091H108.505L105.949 27.8751H100.365V31.8452H110.399V37.6292H94.7503V12.5422L110.399 12.508V18.292Z" fill="#1E1B30"/>
<path d="M130.011 12.4738H135.792L137.22 37.6292H131.606L131.008 27.3617L127.619 37.6292H122.004L118.416 26.951L117.751 37.6292H112.103L113.664 12.4738H119.446L124.795 28.2173L130.011 12.4738Z" fill="#1E1B30"/>
<path d="M149.441 12.4738C151.124 12.4738 152.708 12.8046 154.192 13.4663C155.676 14.128 156.972 15.0292 158.079 16.1701C159.187 17.2881 160.061 18.6115 160.704 20.1402C161.346 21.6689 161.667 23.3003 161.667 25.0344C161.667 26.7685 161.346 28.3999 160.704 29.9286C160.061 31.4573 159.187 32.7921 158.079 33.9329C156.972 35.0509 155.676 35.9408 154.192 36.6025C152.708 37.2642 151.124 37.595 149.441 37.595C147.757 37.595 146.174 37.2642 144.69 36.6025C143.206 35.9408 141.91 35.0509 140.802 33.9329C139.717 32.7921 138.853 31.4573 138.211 29.9286C137.569 28.3999 137.247 26.7685 137.247 25.0344C137.247 23.3003 137.569 21.6689 138.211 20.1402C138.853 18.6115 139.717 17.2881 140.802 16.1701C141.91 15.0292 143.206 14.128 144.69 13.4663C146.174 12.8046 147.757 12.4738 149.441 12.4738ZM149.441 31.811C150.349 31.811 151.202 31.6398 151.999 31.2976C152.796 30.9325 153.494 30.442 154.092 29.8259C154.69 29.2099 155.155 28.4911 155.488 27.6697C155.842 26.8483 156.019 25.9699 156.019 25.0344C156.019 24.0989 155.842 23.2205 155.488 22.3991C155.155 21.5777 154.69 20.8589 154.092 20.2429C153.494 19.6268 152.796 19.1477 151.999 18.8054C151.202 18.4403 150.349 18.2578 149.441 18.2578C148.533 18.2578 147.68 18.4403 146.883 18.8054C146.085 19.1477 145.387 19.6268 144.789 20.2429C144.191 20.8589 143.715 21.5777 143.361 22.3991C143.029 23.2205 142.862 24.0989 142.862 25.0344C142.862 25.9699 143.029 26.8483 143.361 27.6697C143.715 28.4911 144.191 29.2099 144.789 29.8259C145.387 30.442 146.085 30.9325 146.883 31.2976C147.68 31.6398 148.533 31.811 149.441 31.811Z" fill="#1E1B30"/>
<path d="M177.394 12.508H183.009V37.6292H176.929L168.955 22.9809V37.6292H163.34V12.5764H169.453L177.394 27.1906V12.508Z" fill="#1E1B30"/>
<path d="M199.999 12.4053V18.2236H195.315V37.6292H189.7V18.2236H185.048V12.4053H199.999Z" fill="#1E1B30"/>
</svg>
