<svg width="378" height="160" viewBox="0 0 378 160" fill="none" xmlns="http://www.w3.org/2000/svg">
<path d="M372.358 30.4958C372.112 30.6434 371.966 30.7414 371.811 30.8228C371.103 31.1966 370.405 31.5932 369.68 31.9287C368.98 32.2522 368.232 32.3849 367.468 32.17C367.171 32.0867 366.877 31.9708 366.608 31.8224C366.257 31.6283 366.14 31.3014 366.231 30.9086C366.266 30.7572 366.301 30.6032 366.361 30.4602C366.593 29.9067 366.832 29.3556 367.074 28.8071C367.154 28.6273 367.255 28.457 367.335 28.3038C367.24 28.1279 367.13 28.1935 367.029 28.2103C366.79 28.2497 366.549 28.3291 366.313 28.3185C366.1 28.3089 365.882 28.2214 365.684 28.1304C365.49 28.0416 365.456 27.8503 365.578 27.685C365.657 27.5785 365.746 27.4752 365.846 27.3898C366.711 26.6543 367.717 26.289 368.85 26.286C369.325 26.2847 369.777 26.4087 370.185 26.656C370.62 26.9195 370.736 27.1924 370.554 27.6665C370.379 28.1215 370.143 28.5537 369.934 28.9956C369.832 29.2123 369.668 29.4025 369.631 29.6376C369.725 29.7573 369.806 29.6926 369.869 29.6436C370.291 29.3162 370.722 28.9982 371.125 28.6489C371.596 28.2403 372.039 27.8009 372.498 27.3785C372.927 26.9843 373.299 26.5529 373.567 26.0255C373.717 25.732 373.939 25.4724 374.148 25.2131C374.398 24.9015 371.224 24.7488 371.614 24.7213C372.134 24.6853 372.637 24.7759 373.098 25.03C373.565 25.2879 377.172 25.575 376.872 26.0106C376.608 26.3942 376.319 26.7672 376.002 27.1078C375.719 27.4122 375.553 27.7553 375.424 28.1426C375.01 29.3801 375.018 30.6404 375.204 31.9074C375.277 32.4124 375.403 32.9115 375.532 33.4058C375.668 33.926 375.875 34.4182 376.245 34.8244C376.632 35.2498 376.384 35.5433 375.939 35.6017C375.041 35.7188 373.896 35.4709 373.286 34.3286C373.078 33.9396 372.916 33.5153 372.806 33.0883C372.656 32.508 372.574 31.9108 372.469 31.3199C372.428 31.082 372.404 30.8413 372.358 30.4958ZM288.829 9.81877C290.265 9.78661 291.601 9.75146 292.937 9.72825C294.543 9.69949 296.143 9.78489 297.731 10.0183C299.277 10.2458 300.788 10.6231 302.228 11.2363C302.799 11.4796 303.351 11.7782 303.882 12.0996C304.481 12.4626 304.941 12.9793 305.281 13.596C305.496 13.9845 305.542 14.3964 305.457 14.826C305.386 15.1877 305.239 15.3096 304.857 15.3138C304.466 15.3189 304.115 15.2075 303.815 14.9409C303.532 14.69 303.235 14.4548 302.944 14.2137C301.778 13.2496 300.423 12.7459 298.941 12.5107C296.864 12.1812 294.776 12.1271 292.681 12.1935C291.568 12.2283 290.455 12.273 289.342 12.2953C286.958 12.3433 284.576 12.2853 282.202 12.0615C280.207 11.873 278.228 11.5714 276.324 10.9002C275.141 10.4835 274.024 9.94019 273.008 9.20256C272.203 8.61808 271.547 7.90451 271.129 6.98604C270.565 5.74679 270.527 4.4937 271.001 3.22122C271.361 2.25482 271.976 1.47972 272.781 0.847316C273.511 0.272634 274.369 0.0521729 275.272 0.00786832C276.17 -0.0362233 277.048 0.103938 277.883 0.454966C278.214 0.593631 278.527 0.76317 278.776 1.02878C279.155 1.43434 279.094 1.86034 278.597 2.11701C278.383 2.22735 278.141 2.29636 277.903 2.34237C277.581 2.40542 277.33 2.56303 277.111 2.79712C276.047 3.93179 275.7 5.24157 276.149 6.74026C276.354 7.42463 276.77 7.96182 277.356 8.37356C278.06 8.86772 278.841 9.17295 279.677 9.35017C280.944 9.61834 282.231 9.71568 283.52 9.79385C285.323 9.90334 287.126 9.88225 288.829 9.81877ZM275.715 25.9723C275.562 26.0526 275.499 26.0749 275.449 26.1135C274.019 27.2113 272.558 28.2695 271.243 29.5096C270.576 30.1397 269.996 30.8413 269.48 31.597C268.823 32.5609 268.724 33.6251 268.961 34.7322C269.106 35.4051 269.447 35.9841 270.013 36.3871C270.501 36.7347 271.013 37.0527 271.536 37.3445C272.196 37.7126 272.88 38.038 273.551 38.388C273.701 38.4666 273.888 38.5228 273.905 38.7795C273.727 38.9652 273.485 38.974 273.244 38.9448C272.87 38.8988 272.492 38.8536 272.125 38.7684C270.605 38.4155 269.127 37.9341 267.719 37.254C267.156 36.9817 266.627 36.6535 266.141 36.2593C265.021 35.3497 264.338 34.1865 264.131 32.7558C264.016 31.964 264.158 31.2034 264.479 30.4766C264.797 29.7569 265.229 29.1132 265.778 28.5483C266.617 27.685 267.518 26.8903 268.472 26.1557C269.565 25.3137 270.677 24.4957 271.759 23.6399C272.876 22.7568 273.977 21.8526 275.064 20.933C275.521 20.5462 275.933 20.1034 276.354 19.6744C276.791 19.2275 277.193 18.7534 277.391 18.1414C277.432 18.0162 277.513 17.9046 277.573 17.7853C277.916 17.1082 278.479 16.7759 279.224 16.7102C280.243 16.621 281.222 16.7597 282.154 17.1887C282.459 17.3295 282.743 17.5033 282.971 17.757C283.216 18.0302 283.309 18.3385 283.13 18.6765C282.964 18.9898 282.798 19.31 282.583 19.5899C282.319 19.9339 282.156 20.3081 282.043 20.7222C281.679 22.056 281.418 23.4099 281.264 24.782C281.001 27.1255 280.754 29.4711 280.525 31.8186C280.445 32.6369 280.423 33.4595 280.625 34.2753C280.733 34.7152 280.573 35.0066 280.165 35.2C279.967 35.2935 279.748 35.367 279.532 35.3962C278.518 35.5323 277.533 35.413 276.598 34.9838C276.397 34.8915 276.204 34.7765 276.021 34.6519C275.696 34.4315 275.479 34.1303 275.392 33.7405C275.271 33.1961 275.169 32.6471 275.213 32.0871C275.312 30.8228 275.423 29.5595 275.535 28.2961C275.592 27.6537 275.662 27.0121 275.722 26.3693C275.732 26.2641 275.718 26.1569 275.715 25.9723ZM290.653 31.4773C290.412 31.6567 290.292 31.7485 290.17 31.836C289.791 32.1089 289.419 32.3926 289.029 32.6493C288.262 33.1526 287.408 33.3792 286.495 33.359C285.689 33.3415 284.899 33.2054 284.154 32.8857C283.85 32.7553 283.554 32.5914 283.281 32.4035C282.843 32.1021 282.583 31.6765 282.459 31.1512C282.275 30.3697 282.375 29.5995 282.504 28.8304C282.767 27.2676 283.216 25.751 283.742 24.2606C284.134 23.1496 284.596 22.0628 285.026 20.9652C285.089 20.8051 285.149 20.6438 285.226 20.44C285.087 20.3957 284.988 20.3626 284.888 20.333C284.739 20.2893 284.583 20.2636 284.442 20.2031C283.962 19.9975 283.879 19.7566 284.148 19.3217C284.457 18.8228 284.865 18.4105 285.336 18.0671C286.04 17.5548 286.794 17.1265 287.584 16.7631C287.933 16.6029 288.298 16.5211 288.682 16.5064C289.36 16.4802 290.013 16.5965 290.64 16.8494C290.845 16.9318 291.048 17.03 291.233 17.151C291.83 17.5406 291.983 17.9436 291.785 18.6354C291.706 18.9123 291.592 19.1813 291.471 19.4431C291.171 20.0889 290.866 20.7326 290.547 21.3695C289.678 23.1074 289.022 24.9262 288.47 26.7851C288.447 26.8641 288.438 26.9474 288.402 27.1361C288.562 26.994 288.648 26.9331 288.715 26.8554C290.028 25.3416 291.338 23.825 292.499 22.1874C292.771 21.8032 292.989 21.4012 293.142 20.9514C293.479 19.9601 293.899 19.0011 294.417 18.0882C294.538 17.8754 294.67 17.6694 294.8 17.4617C295.117 16.951 295.596 16.6917 296.175 16.6185C297.26 16.4798 298.31 16.621 299.298 17.0999C299.574 17.2334 299.829 17.4275 300.058 17.6322C300.329 17.8728 300.412 18.1913 300.278 18.5449C300.175 18.8147 300.094 19.0967 299.96 19.3513C299.464 20.2966 298.965 21.2415 298.434 22.168C298.2 22.5774 298.006 22.9928 297.875 23.4452C297.189 25.798 296.656 28.1862 296.235 30.5989C296.032 31.7606 295.861 32.9283 295.709 34.0971C295.624 34.7584 295.613 35.4287 295.557 36.0944C295.533 36.3819 295.479 36.6674 295.444 36.9538C295.376 37.5045 295.019 37.7809 294.516 37.8542C294.122 37.9117 293.715 37.9215 293.318 37.8964C292.736 37.8591 292.182 37.6896 291.663 37.4152C291.148 37.1424 290.793 36.7372 290.604 36.1815C290.407 35.6051 290.297 35.0168 290.355 34.4091C290.427 33.6338 290.519 32.8599 290.601 32.0859C290.617 31.9334 290.627 31.7807 290.653 31.4773ZM305.526 19.4817C305.388 20.8089 305.257 22.1372 305.109 23.4631C304.99 24.5241 304.871 25.5857 304.714 26.6418C304.554 27.7189 304.34 28.7884 304.162 29.8634C303.833 31.8597 303.51 33.8572 303.19 35.8558C303.137 36.1849 303.104 36.5174 303.072 36.8497C303.007 37.5053 302.616 37.8491 301.943 37.9752C301.435 38.0702 300.922 38.0627 300.413 37.9941C299.882 37.9221 299.368 37.7775 298.887 37.5315C298.025 37.0904 297.744 36.6045 297.877 35.643C298.095 34.0568 298.33 32.4729 298.584 30.8924C298.763 29.7727 298.985 28.66 299.186 27.5438C299.506 25.762 300.094 24.0606 300.72 22.3698C301.038 21.5124 301.42 20.6858 301.863 19.8868C302.134 19.3975 302.458 18.9453 302.851 18.5479C303.419 17.9736 304.193 17.8343 304.939 18.1337C305.316 18.2856 305.505 18.5453 305.509 18.9447C305.51 19.1225 305.5 19.3006 305.495 19.4782C305.505 19.4795 305.516 19.4808 305.526 19.4817ZM317.719 31.8262C317.617 31.8748 317.532 31.8982 317.468 31.9485C317.294 32.0867 317.13 32.2373 316.96 32.3811C315.42 33.6879 313.631 34.3182 311.622 34.3384C310.524 34.3495 309.442 34.2182 308.411 33.8284C307.956 33.6568 307.505 33.4478 307.097 33.1856C306.072 32.527 305.538 31.5632 305.48 30.3448C305.447 29.65 305.528 28.9588 305.721 28.2966C306.633 25.1518 308.281 22.4963 310.938 20.5119C312.037 19.6919 313.267 19.235 314.6 18.9941C315.44 18.8422 316.278 18.7762 317.121 18.9391C317.425 18.9979 317.726 19.0825 318.021 19.1775C318.189 19.2309 318.348 19.3185 318.5 19.4088C318.93 19.6623 319.122 20.058 318.497 20.3948C317.833 20.7537 317.208 21.1861 316.551 21.5608C314.825 22.547 313.513 23.9409 312.499 25.6325C311.926 26.5896 311.434 27.5851 311.105 28.6557C310.895 29.3398 310.745 30.0344 310.764 30.7542C310.771 31.0168 310.808 31.2782 310.836 31.5919C311.012 31.5421 311.152 31.5357 311.25 31.4682C311.634 31.2045 312.038 30.9555 312.375 30.6379C313.234 29.8302 314.072 28.9995 314.898 28.1579C315.74 27.2997 316.558 26.4191 317.384 25.5462C317.752 25.1577 318.116 24.7677 318.476 24.372C319.151 23.6292 319.748 22.8392 320.208 21.9333C320.671 21.0227 321.24 20.1665 321.751 19.2795C322.11 18.6548 322.632 18.3067 323.351 18.2187C324.464 18.0818 325.522 18.2496 326.528 18.7419C326.608 18.7813 326.684 18.8277 326.759 18.8765C327.413 19.307 327.528 19.6695 327.226 20.4039C326.954 21.0655 326.587 21.6771 326.179 22.262C325.81 22.7911 325.411 23.2997 325.042 23.8288C324.852 24.1008 324.672 24.3858 324.535 24.6862C323.84 26.21 323.325 27.7924 323.032 29.4457C322.778 30.8798 322.9 32.2827 323.338 33.6638C323.439 33.9818 323.564 34.2919 323.666 34.6091C323.735 34.8202 323.807 35.0345 323.838 35.2524C323.901 35.6893 323.74 35.9785 323.342 36.176C322.976 36.357 322.579 36.4252 322.176 36.4235C321.481 36.4209 320.803 36.3063 320.157 36.0407C319.332 35.702 318.725 35.1361 318.44 34.2826C318.201 33.5667 318.01 32.8346 317.797 32.1095C317.774 32.0279 317.752 31.9459 317.719 31.8262ZM338.853 23.2177C338.328 23.3924 337.014 24.2293 336.496 24.7149C336.506 24.7711 336.508 24.838 336.531 24.8975C336.996 26.1148 337.205 27.3851 337.299 28.6772C337.465 30.9395 336.982 33.0548 335.834 35.0142C335.483 35.6123 335.066 36.1587 334.562 36.6382C333.688 37.4693 332.652 37.9168 331.449 37.9963C330.302 38.0715 329.185 37.9354 328.101 37.5432C327.934 37.4827 327.768 37.4178 327.605 37.3479C326.005 36.6661 325.153 35.4296 324.909 33.7324C324.678 32.1223 325.072 30.6379 325.816 29.2304C326.413 28.1017 327.195 27.1027 328.079 26.1848C328.914 25.3171 329.832 24.5432 330.803 23.8305C332.367 22.6831 334.022 21.6822 335.687 20.6934C336.49 20.2163 337.299 19.7468 338.085 19.2431C338.721 18.8354 339.333 18.3891 339.946 17.9457C340.343 17.6577 340.687 17.3192 340.961 16.8996C341.43 16.1837 342.105 15.8103 342.974 15.7752C343.832 15.7405 344.661 15.8395 345.455 16.1794C345.763 16.3115 346.055 16.4734 346.284 16.7275C346.533 17.0051 346.559 17.2524 346.376 17.5802C346.333 17.6573 346.277 17.7278 346.227 17.8013C345.272 19.1817 344.748 20.7313 344.426 22.3616C344.192 23.5425 344.071 24.7381 343.974 25.9354C343.836 27.6431 343.709 29.3518 343.601 31.0616C343.526 32.2618 343.524 33.4647 343.633 34.6636C343.664 34.9953 343.737 35.3229 343.785 35.6528C343.871 36.2433 343.749 36.4565 343.189 36.6754C343.046 36.7317 342.894 36.7762 342.742 36.8003C341.705 36.9639 340.702 36.8371 339.735 36.4292C339.613 36.3777 339.496 36.3106 339.379 36.2471C338.877 35.9751 338.553 35.5717 338.484 34.9953C338.41 34.3769 338.3 33.7573 338.296 33.1377C338.288 31.9366 338.312 30.7331 338.382 29.5345C338.477 27.9134 338.625 26.2954 338.754 24.6763C338.782 24.3219 338.83 23.9688 338.859 23.6139C338.87 23.485 338.856 23.3543 338.853 23.2177ZM330.152 34.5584C330.287 34.4204 330.397 34.3431 330.459 34.2374C330.714 33.7967 330.998 33.3656 331.194 32.8978C331.802 31.4439 332.347 29.9659 332.589 28.3965C332.612 28.248 332.631 28.0991 332.664 27.8512C332.491 27.9871 332.376 28.0484 332.301 28.1417C331.911 28.6257 331.522 29.1107 331.151 29.6084C330.668 30.256 330.352 30.9881 330.117 31.7574C329.893 32.4932 329.855 33.241 329.987 33.9963C330.016 34.165 330.083 34.3267 330.152 34.5584ZM355.152 35.7874C353.787 35.7674 352.391 35.5412 351.073 34.9386C350.504 34.6788 349.971 34.3586 349.502 33.9392C348.971 33.463 348.622 32.8806 348.51 32.1704C348.3 30.8323 349.12 30.1787 350.104 29.9401C350.437 29.8594 350.769 29.9658 351.078 30.099C351.474 30.2687 351.533 30.4161 351.348 30.8142C351.231 31.0662 351.195 31.3225 351.203 31.5924C351.235 32.6188 351.886 33.9775 353.601 34.2027C356.076 34.5279 358.338 32.3913 358.141 29.9024C358.091 29.251 357.917 28.6352 357.5 28.1059C357.326 27.8842 357.128 27.8069 356.86 27.9004C355.796 28.2734 355.038 28.9905 354.55 29.9916C354.457 30.1808 354.464 30.42 354.433 30.637C354.399 30.8756 354.283 30.9872 354.039 31.0013C353.146 31.0516 352.448 30.3062 352.59 29.4157C352.638 29.1153 352.755 28.8125 352.9 28.5432C353.503 27.4267 354.493 26.8285 355.703 26.5859C356.808 26.3646 357.877 26.5376 358.874 27.0658C360.17 27.7515 360.873 28.848 361.082 30.2903C361.384 32.3728 359.817 34.6645 358.098 35.249C357.161 35.5674 356.211 35.7544 355.152 35.7874ZM364.212 33.2054C364.419 33.1462 364.585 33.0998 364.75 33.051C366.847 32.4297 368.705 32.9356 370.361 34.2851C370.682 34.5465 370.955 34.8954 371.17 35.2519C372.112 36.8071 372.412 38.5039 371.979 40.2601C371.36 42.7652 369.461 44.3472 366.923 44.6316C365.304 44.8128 363.728 44.5819 362.19 44.0686C361.638 43.8845 361.116 43.6402 360.642 43.3C359.559 42.5245 359.187 41.413 359.235 40.151C359.27 39.197 359.918 38.8721 360.834 39.2155C361.075 39.3056 361.233 39.4679 361.301 39.7365C361.428 40.2313 361.564 40.7266 361.741 41.2045C361.879 41.5771 362.071 41.9323 362.267 42.2795C362.483 42.6627 362.824 42.9005 363.245 43.0383C365.52 43.781 367.456 42.9134 368.582 41.2569C369.505 39.8982 369.655 38.4121 369.354 36.8463C369.254 36.3206 369.097 35.8064 368.828 35.3408C368.662 35.0536 368.481 34.7635 368.251 34.5288C367.724 33.9903 367.099 33.7349 366.317 33.9032C365.32 34.1177 364.412 34.5156 363.602 35.1233C362.979 35.5911 362.405 36.1168 361.977 36.772C361.566 36.7187 361.497 36.6669 361.504 36.3794C361.509 36.2047 361.544 36.0309 361.572 35.797C361.432 35.9003 361.325 35.9664 361.233 36.0495C360.125 37.0467 359.021 38.0487 357.912 39.0447C357.563 39.3576 357.191 39.639 356.763 39.8398C356.196 40.1063 355.64 40.072 355.101 39.77C354.834 39.6202 354.788 39.3889 354.985 39.1593C355.158 38.9576 355.351 38.7688 355.556 38.5997C356.465 37.8482 357.381 37.1055 358.296 36.3613C359.055 35.7442 359.816 35.1271 360.579 34.5143C360.978 34.1942 361.384 33.883 361.794 33.5616C361.719 31.5953 362.289 29.7209 362.808 27.8382C362.826 27.7743 362.859 27.7146 362.881 27.6516C362.974 27.3851 363.098 27.164 363.437 27.1791C363.794 27.1949 364.108 27.2884 364.238 27.6567C364.312 27.8631 364.365 28.088 364.371 28.3055C364.388 28.9505 364.396 29.5967 364.369 30.2404C364.333 31.1073 364.26 31.9726 364.206 32.8384C364.199 32.9449 364.209 33.0527 364.212 33.2054Z" fill="white"/>
<path d="M107.575 59.5173H123.372C127.66 59.247 131.406 62.7306 131.406 67.016H111.859C110.253 67.016 108.914 67.8193 108.378 69.1584V78.5314C108.378 79.8706 109.181 81.2097 110.788 81.7456H125.25C128.729 81.7456 131.677 83.888 132.746 87.1014V104.509C132.746 107.723 130.606 110.13 126.589 111.469H108.11C103.825 111.74 100.076 108.259 100.076 103.973H120.965C122.571 103.973 123.911 103.17 124.447 101.831C124.447 101.563 124.712 101.028 124.712 100.757V92.4577C124.712 91.1186 123.911 89.7797 122.304 89.2435C121.768 89.2435 121.501 88.9764 120.965 88.9764H107.575C104.093 88.9764 100.879 86.8334 100.076 83.3497V65.9419C100.076 62.7306 102.218 60.3205 106.236 59.2469C106.771 59.5172 107.039 59.5173 107.575 59.5173Z" fill="white"/>
<path d="M138.927 59.5173H146.962V89.2436H147.229C147.497 88.9765 149.104 87.1014 152.048 83.888C157.674 77.4603 160.62 74.5148 160.888 74.5148H171.332L157.942 89.5115H163.298C166.511 89.5115 169.455 91.3836 170.794 94.3322C171.065 95.401 171.332 96.4744 171.332 97.8135V112.007H163.298V100.492C163.298 99.1527 162.495 97.8135 160.888 97.2784H146.962V112.273H138.927V59.5173Z" fill="white"/>
<path d="M177.511 74.5125H185.546V111.738H177.511V74.5125ZM177.511 59.5181H185.546V67.0169H177.511V59.5181Z" fill="white"/>
<path d="M191.725 59.5181H199.759V111.741H191.725V59.5181Z" fill="white"/>
<path d="M205.935 59.5181H214.24V111.741H205.935V59.5181Z" fill="white"/>
<path d="M229.31 70.2294V101.028C229.31 102.634 230.113 103.705 231.718 104.241H246.182C247.521 104.241 248.589 103.705 249.396 102.634C249.663 102.366 249.928 101.831 249.928 101.295V69.6944C249.928 68.0873 248.86 67.0161 246.447 66.7481H233.057C231.453 66.7481 230.113 67.5513 229.578 68.8905C229.31 69.4264 229.31 69.9594 229.31 70.2294ZM229.31 59.5173H249.663C252.877 59.5173 255.82 61.3917 257.159 64.3378C257.43 65.4089 257.698 66.4802 257.698 67.8193V103.705C257.963 107.187 255.82 110.401 252.342 111.469C251.539 111.74 250.464 112.007 249.663 112.007H241.362V112.275C241.362 113.882 242.165 114.953 243.769 115.486H253.681C253.413 119.774 249.928 122.987 245.646 122.987H241.63C238.951 122.987 236.273 121.648 234.667 119.504C233.595 117.096 233.057 114.685 233.328 112.007H229.578C225.826 112.275 222.616 109.865 221.544 106.383C221.276 105.848 221.276 105.312 221.276 104.774V66.7481C221.276 63.5347 223.419 60.8565 226.632 60.0532C227.436 59.5173 228.504 59.5173 229.31 59.5173Z" fill="white"/>
<path d="M272.178 101.026C272.178 102.633 272.982 103.705 274.586 104.243H285.033C286.637 104.243 287.977 103.436 288.515 102.097V85.2254C288.515 83.6192 287.711 82.5474 286.104 82.0121H275.66C274.053 82.0121 272.714 82.8183 272.178 84.1574V101.026ZM272.178 74.5133H288.247C291.993 74.2453 295.21 76.6557 296.281 80.14C296.549 80.6729 296.549 81.2089 296.549 81.7441V104.775C296.549 107.989 294.406 110.667 291.46 111.47C290.389 111.738 289.586 112.006 288.515 112.006H272.446C268.697 112.277 265.483 109.864 264.412 106.383C264.144 105.847 264.144 105.312 264.144 104.775V81.7441C264.144 78.5308 266.286 75.8525 269.501 75.0492C270.304 74.5133 271.107 74.5133 272.178 74.5133Z" fill="white"/>
<path d="M331.115 59.5173H339.15V104.509C339.15 107.723 337.007 110.401 333.793 111.204C332.722 111.469 331.919 111.74 330.847 111.74H310.494C307.28 111.74 304.334 109.865 302.996 106.919C302.728 105.848 302.46 104.774 302.46 103.435V82.5489C302.192 79.0673 304.334 75.8532 307.816 74.7822C308.619 74.5149 309.69 74.2469 310.494 74.2469H326.83V81.7457H314.243C312.904 81.7457 311.833 82.2809 311.03 83.3498C310.762 83.6198 310.762 84.156 310.762 84.6889V101.563C310.762 103.17 311.833 103.973 314.243 104.241H327.365C328.972 104.241 330.312 103.435 330.847 102.096C330.847 101.831 331.115 101.295 331.115 101.028V59.5173Z" fill="white"/>
<path d="M353.361 74.5133H369.7C373.447 74.2453 376.661 76.6557 377.734 80.14C378 80.6729 378 81.2089 378 81.7441V89.778C378 92.9922 375.857 95.6705 372.643 96.4737C371.575 96.7417 370.769 97.0087 369.7 97.0087H357.649V89.5132H366.219C367.823 89.5132 369.162 88.707 369.7 87.3678V85.2254C369.7 83.6192 368.897 82.5474 367.287 82.0121H356.846C354.433 82.0121 353.093 83.0833 353.093 85.4966V101.026C353.093 102.633 353.897 103.705 355.507 104.243H373.718V111.738H353.361C349.615 112.006 346.398 109.599 345.327 106.115C345.06 105.582 345.06 105.043 345.06 104.508V81.4791C345.06 78.8008 346.667 76.6557 350.15 75.0492C351.489 74.5133 352.292 74.5133 353.361 74.5133Z" fill="white"/>
<path d="M241.628 111.74H233.326V95.9393C237.879 95.9393 241.628 99.6885 241.628 104.241V111.74Z" fill="white"/>
<path d="M44.2769 107.452C47.7601 103.969 47.7601 98.5702 44.2769 95.087L30.3452 81.1553V80.9832L33.4797 78.0227L41.3165 70.1861C43.058 68.4445 45.8426 68.4445 47.5837 70.1861L54.9002 77.6727C58.2085 74.1895 58.2085 68.6169 54.9002 65.1341L50.5462 60.7801C47.0634 57.2975 41.3165 57.2975 37.8333 60.7801L23.5536 75.0604C20.2427 78.3707 20.0704 83.942 23.3794 87.2504L37.311 101.183C37.4853 101.356 37.4853 101.533 37.311 101.705L22.8552 116.159C22.6828 116.335 22.5086 116.335 22.3329 116.159L22.6828 115.811L17.6323 110.76C15.3664 108.498 13.1045 106.233 10.8407 103.969C9.96997 102.75 9.96997 101.008 11.013 99.9632C11.7115 99.0925 12.7546 98.2217 13.4526 97.3514L20.2446 90.5594C20.419 90.3851 20.419 90.2128 20.2446 90.0371C16.7616 87.0766 11.5372 87.2504 8.22846 90.5594L2.65567 96.1322L2.48143 96.3079C-0.827143 99.6152 -0.827143 105.015 2.48143 108.498L13.4526 119.468L16.5873 122.43C20.0704 125.913 25.6432 125.913 29.126 122.43L40.9679 110.587L44.2769 107.452Z" fill="white"/>
<path d="M85.3747 95.088L71.0946 80.8078C67.612 77.3252 62.0392 77.3252 58.556 80.6336H58.3824L47.5848 91.4311C47.411 91.6047 47.411 91.9535 47.5848 92.1277C50.8936 95.4361 56.1184 95.4361 59.4269 92.1277L64.1288 87.4257C64.303 87.2514 64.6517 87.2514 64.8253 87.4257L75.6228 98.2227C77.3639 99.9642 77.3639 102.749 75.6228 104.49L67.96 112.503L55.5956 124.867L49.1521 131.136V130.091C49.1521 125.738 45.4953 122.081 41.1417 122.081H39.226V132.529L33.4789 126.783C33.1309 126.435 32.7824 126.086 32.2601 125.738C32.0859 125.738 32.0859 125.738 31.9114 125.912C28.6031 129.221 28.6031 134.619 31.9114 137.928L37.4842 143.501C38.0072 144.023 38.5294 144.372 39.226 144.72C39.0517 146.81 39.226 148.899 39.4002 150.815C39.7482 153.253 40.619 155.343 42.3605 157.084C44.2765 158.826 46.7145 159.87 49.3263 159.696H55.9441C60.2977 159.696 63.9549 156.214 63.9549 151.686V149.77H53.5061C52.9838 149.77 52.4611 149.77 51.9388 149.596C50.1971 149.074 48.9783 147.332 49.1521 145.417V143.501C49.3263 143.327 49.5006 143.327 49.5006 143.153L63.7807 128.873L85.3747 107.627C88.858 103.97 88.858 98.5706 85.3747 95.088Z" fill="white"/>
<path d="M32.7759 34.7119L41.3344 26.1535C42.8086 24.6793 45.221 24.6793 46.6952 26.1535L55.2537 34.7119C56.7279 36.1861 56.7279 38.5986 55.2537 40.0728L46.6952 48.6312C45.221 50.1054 42.8086 50.1054 41.3344 48.6312L32.7759 40.0728C31.3017 38.5986 31.3017 36.1861 32.7759 34.7119Z" fill="white"/>
<path d="M201.591 141.776C201.591 143.341 201.384 144.684 200.974 145.798C200.563 146.912 199.977 147.823 199.21 148.526C198.444 149.23 197.515 149.748 196.419 150.078C195.319 150.407 194.016 150.574 192.501 150.574H188.419C188.126 150.574 187.883 150.488 187.685 150.317C187.486 150.145 187.387 149.866 187.387 149.478V134.574C187.387 134.186 187.486 133.907 187.685 133.736C187.883 133.564 188.126 133.479 188.419 133.479H192.803C194.327 133.479 195.621 133.659 196.681 134.015C197.74 134.371 198.638 134.899 199.364 135.598C200.09 136.297 200.645 137.163 201.023 138.195C201.402 139.224 201.591 140.419 201.591 141.776ZM197.998 141.893C197.998 141.081 197.903 140.333 197.713 139.634C197.524 138.939 197.217 138.335 196.798 137.826C196.383 137.316 195.846 136.915 195.188 136.631C194.534 136.342 193.673 136.198 192.604 136.198H190.85V147.827H192.658C193.61 147.827 194.412 147.701 195.062 147.458C195.716 147.21 196.257 146.835 196.694 146.339C197.132 145.843 197.456 145.221 197.673 144.482C197.889 143.742 197.998 142.881 197.998 141.893ZM215.129 143.891C215.129 144.292 215.038 144.594 214.858 144.788C214.678 144.982 214.43 145.077 214.114 145.077H206.94C206.94 145.582 206.998 146.037 207.116 146.443C207.237 146.853 207.427 147.201 207.684 147.489C207.945 147.773 208.279 147.994 208.689 148.143C209.1 148.292 209.591 148.369 210.164 148.369C210.746 148.369 211.255 148.323 211.693 148.242C212.134 148.157 212.518 148.066 212.838 147.963C213.158 147.864 213.424 147.769 213.636 147.688C213.848 147.602 214.019 147.561 214.15 147.561C214.231 147.561 214.299 147.575 214.348 147.607C214.403 147.638 214.448 147.692 214.484 147.773C214.515 147.85 214.542 147.963 214.556 148.112C214.569 148.256 214.574 148.436 214.574 148.657C214.574 148.851 214.569 149.018 214.56 149.153C214.551 149.288 214.538 149.406 214.52 149.505C214.506 149.6 214.479 149.681 214.443 149.748C214.407 149.816 214.362 149.879 214.303 149.938C214.245 150.001 214.091 150.087 213.834 150.19C213.577 150.294 213.253 150.398 212.856 150.501C212.459 150.601 212.008 150.691 211.498 150.763C210.985 150.84 210.439 150.876 209.857 150.876C208.811 150.876 207.891 150.745 207.102 150.479C206.317 150.218 205.659 149.816 205.127 149.279C204.599 148.743 204.207 148.062 203.945 147.246C203.688 146.425 203.558 145.465 203.558 144.364C203.558 143.318 203.693 142.371 203.968 141.532C204.239 140.689 204.635 139.977 205.154 139.39C205.677 138.804 206.308 138.358 207.052 138.051C207.796 137.74 208.635 137.587 209.568 137.587C210.556 137.587 211.399 137.731 212.098 138.024C212.797 138.313 213.374 138.719 213.821 139.233C214.272 139.747 214.601 140.355 214.813 141.063C215.025 141.767 215.129 142.533 215.129 143.359V143.891ZM211.904 142.939C211.932 142.006 211.747 141.271 211.345 140.739C210.944 140.207 210.326 139.941 209.487 139.941C209.063 139.941 208.698 140.017 208.387 140.175C208.071 140.333 207.814 140.549 207.607 140.815C207.399 141.086 207.242 141.402 207.129 141.767C207.021 142.132 206.958 142.524 206.94 142.939H211.904ZM226.785 148.247C226.785 148.477 226.776 148.671 226.763 148.824C226.749 148.977 226.731 149.108 226.713 149.212C226.691 149.32 226.664 149.406 226.632 149.469C226.6 149.537 226.533 149.622 226.429 149.721C226.321 149.821 226.141 149.947 225.883 150.091C225.631 150.235 225.338 150.366 225.013 150.479C224.688 150.596 224.332 150.686 223.949 150.759C223.566 150.831 223.173 150.862 222.767 150.862C221.861 150.862 221.058 150.723 220.355 150.443C219.656 150.159 219.07 149.744 218.592 149.194C218.118 148.644 217.758 147.972 217.519 147.178C217.275 146.384 217.153 145.478 217.153 144.459C217.153 143.277 217.302 142.258 217.595 141.397C217.893 140.54 218.303 139.828 218.831 139.264C219.358 138.7 219.985 138.281 220.707 138.011C221.428 137.736 222.222 137.6 223.083 137.6C223.439 137.6 223.782 137.632 224.12 137.695C224.463 137.753 224.779 137.839 225.072 137.943C225.369 138.051 225.631 138.168 225.865 138.299C226.1 138.434 226.262 138.547 226.361 138.642C226.456 138.741 226.528 138.822 226.564 138.89C226.605 138.953 226.637 139.039 226.659 139.147C226.682 139.251 226.7 139.381 226.713 139.535C226.727 139.688 226.731 139.877 226.731 140.098C226.731 140.608 226.686 140.969 226.6 141.176C226.51 141.379 226.397 141.483 226.258 141.483C226.104 141.483 225.946 141.424 225.78 141.298C225.613 141.176 225.414 141.041 225.185 140.892C224.955 140.739 224.684 140.603 224.368 140.482C224.048 140.355 223.669 140.297 223.232 140.297C222.366 140.297 221.708 140.626 221.248 141.293C220.792 141.956 220.562 142.935 220.562 144.22C220.562 144.851 220.617 145.41 220.734 145.897C220.847 146.38 221.018 146.786 221.243 147.11C221.464 147.44 221.748 147.683 222.087 147.845C222.425 148.008 222.822 148.089 223.268 148.089C223.728 148.089 224.12 148.021 224.454 147.886C224.783 147.751 225.072 147.597 225.315 147.431C225.563 147.264 225.771 147.11 225.938 146.975C226.104 146.835 226.249 146.768 226.361 146.768C226.443 146.768 226.506 146.79 226.56 146.835C226.614 146.88 226.655 146.962 226.686 147.079C226.718 147.196 226.74 147.349 226.758 147.534C226.776 147.719 226.785 147.958 226.785 148.247ZM240.976 144.112C240.976 145.117 240.841 146.033 240.58 146.863C240.313 147.688 239.912 148.405 239.375 149C238.839 149.6 238.167 150.064 237.355 150.389C236.544 150.713 235.597 150.876 234.514 150.876C233.468 150.876 232.557 150.731 231.782 150.443C231.006 150.15 230.361 149.726 229.852 149.171C229.342 148.617 228.963 147.936 228.715 147.124C228.467 146.317 228.346 145.392 228.346 144.351C228.346 143.345 228.481 142.43 228.747 141.596C229.017 140.766 229.419 140.053 229.955 139.458C230.496 138.863 231.164 138.403 231.971 138.078C232.778 137.749 233.721 137.587 234.807 137.587C235.863 137.587 236.778 137.731 237.554 138.015C238.329 138.304 238.97 138.723 239.475 139.278C239.984 139.832 240.358 140.518 240.607 141.325C240.85 142.137 240.976 143.066 240.976 144.112ZM237.554 144.247C237.554 143.665 237.508 143.129 237.414 142.642C237.324 142.15 237.166 141.726 236.945 141.366C236.724 141.005 236.431 140.721 236.066 140.522C235.7 140.319 235.24 140.216 234.686 140.216C234.194 140.216 233.761 140.306 233.392 140.486C233.022 140.666 232.72 140.933 232.481 141.28C232.242 141.627 232.066 142.047 231.944 142.533C231.827 143.025 231.768 143.58 231.768 144.206C231.768 144.788 231.813 145.32 231.912 145.812C232.007 146.299 232.165 146.723 232.382 147.088C232.598 147.449 232.891 147.728 233.261 147.927C233.631 148.125 234.086 148.224 234.632 148.224C235.137 148.224 235.57 148.13 235.944 147.949C236.314 147.769 236.616 147.507 236.855 147.165C237.089 146.822 237.265 146.407 237.382 145.915C237.495 145.428 237.554 144.869 237.554 144.247ZM254.784 150.123C254.784 150.222 254.762 150.303 254.716 150.371C254.671 150.434 254.599 150.488 254.491 150.533C254.387 150.578 254.243 150.61 254.062 150.628C253.882 150.646 253.661 150.655 253.395 150.655C253.115 150.655 252.886 150.646 252.71 150.628C252.534 150.61 252.39 150.578 252.277 150.533C252.169 150.488 252.087 150.434 252.042 150.371C251.993 150.303 251.97 150.222 251.97 150.123V148.815C251.361 149.469 250.726 149.974 250.058 150.335C249.395 150.695 248.656 150.876 247.848 150.876C246.947 150.876 246.189 150.704 245.567 150.357C244.949 150.01 244.439 149.541 244.047 148.95C243.655 148.359 243.371 147.67 243.195 146.88C243.019 146.091 242.933 145.262 242.933 144.391C242.933 143.341 243.046 142.398 243.267 141.564C243.493 140.725 243.822 140.013 244.255 139.422C244.683 138.831 245.224 138.38 245.864 138.065C246.509 137.744 247.249 137.587 248.083 137.587C248.746 137.587 249.346 137.722 249.882 137.988C250.419 138.258 250.951 138.651 251.479 139.174V132.793C251.479 132.703 251.506 132.626 251.551 132.554C251.6 132.482 251.691 132.423 251.817 132.374C251.943 132.329 252.115 132.288 252.326 132.261C252.538 132.239 252.804 132.225 253.129 132.225C253.458 132.225 253.724 132.239 253.936 132.261C254.148 132.288 254.315 132.329 254.437 132.374C254.563 132.423 254.649 132.482 254.703 132.554C254.757 132.626 254.784 132.703 254.784 132.793V150.123ZM251.479 142.249C251.005 141.65 250.55 141.194 250.112 140.878C249.675 140.558 249.219 140.4 248.746 140.4C248.313 140.4 247.943 140.509 247.628 140.725C247.316 140.942 247.064 141.23 246.875 141.591C246.685 141.952 246.545 142.353 246.451 142.799C246.36 143.246 246.315 143.701 246.315 144.166C246.315 144.657 246.356 145.14 246.433 145.604C246.514 146.073 246.64 146.488 246.825 146.853C247.005 147.219 247.244 147.512 247.542 147.733C247.844 147.954 248.223 148.062 248.678 148.062C248.908 148.062 249.129 148.03 249.346 147.963C249.562 147.9 249.783 147.791 250.009 147.643C250.229 147.489 250.464 147.295 250.698 147.052C250.937 146.813 251.199 146.515 251.479 146.159V142.249ZM269.011 143.891C269.011 144.292 268.921 144.594 268.74 144.788C268.56 144.982 268.312 145.077 267.996 145.077H260.822C260.822 145.582 260.881 146.037 260.998 146.443C261.12 146.853 261.309 147.201 261.566 147.489C261.828 147.773 262.161 147.994 262.572 148.143C262.982 148.292 263.474 148.369 264.046 148.369C264.628 148.369 265.138 148.323 265.575 148.242C266.017 148.157 266.4 148.066 266.72 147.963C267.04 147.864 267.307 147.769 267.518 147.688C267.73 147.602 267.902 147.561 268.033 147.561C268.114 147.561 268.181 147.575 268.231 147.607C268.285 147.638 268.33 147.692 268.366 147.773C268.398 147.85 268.425 147.963 268.438 148.112C268.452 148.256 268.457 148.436 268.457 148.657C268.457 148.851 268.452 149.018 268.443 149.153C268.434 149.288 268.42 149.406 268.402 149.505C268.389 149.6 268.362 149.681 268.326 149.748C268.29 149.816 268.245 149.879 268.186 149.938C268.127 150.001 267.974 150.087 267.717 150.19C267.46 150.294 267.135 150.398 266.738 150.501C266.342 150.601 265.891 150.691 265.381 150.763C264.867 150.84 264.321 150.876 263.74 150.876C262.694 150.876 261.774 150.745 260.984 150.479C260.2 150.218 259.541 149.816 259.009 149.279C258.482 148.743 258.089 148.062 257.828 147.246C257.571 146.425 257.44 145.465 257.44 144.364C257.44 143.318 257.575 142.371 257.85 141.532C258.121 140.689 258.518 139.977 259.036 139.39C259.559 138.804 260.191 138.358 260.935 138.051C261.679 137.74 262.518 137.587 263.451 137.587C264.439 137.587 265.282 137.731 265.981 138.024C266.68 138.313 267.257 138.719 267.703 139.233C268.154 139.747 268.484 140.355 268.696 141.063C268.907 141.767 269.011 142.533 269.011 143.359V143.891ZM265.787 142.939C265.814 142.006 265.629 141.271 265.228 140.739C264.826 140.207 264.209 139.941 263.37 139.941C262.946 139.941 262.581 140.017 262.27 140.175C261.954 140.333 261.697 140.549 261.489 140.815C261.282 141.086 261.124 141.402 261.011 141.767C260.903 142.132 260.84 142.524 260.822 142.939H265.787ZM284.97 144.089V150.1C284.97 150.186 284.943 150.267 284.884 150.335C284.83 150.407 284.735 150.465 284.6 150.506C284.469 150.551 284.289 150.587 284.068 150.614C283.842 150.641 283.563 150.655 283.229 150.655C282.882 150.655 282.602 150.641 282.381 150.614C282.16 150.587 281.985 150.551 281.845 150.506C281.709 150.465 281.615 150.407 281.561 150.335C281.511 150.267 281.484 150.186 281.484 150.1V144.089L276.808 134.773C276.641 134.448 276.533 134.196 276.483 134.015C276.433 133.835 276.461 133.695 276.564 133.605C276.664 133.51 276.853 133.456 277.123 133.434C277.398 133.411 277.777 133.398 278.26 133.398C278.666 133.398 278.99 133.406 279.229 133.425C279.473 133.442 279.667 133.474 279.806 133.524C279.946 133.573 280.05 133.636 280.118 133.718C280.181 133.794 280.244 133.898 280.307 134.02L282.21 138.222C282.395 138.628 282.58 139.052 282.76 139.503C282.941 139.954 283.121 140.423 283.306 140.915H283.333C283.5 140.441 283.671 139.977 283.847 139.53C284.023 139.079 284.194 138.651 284.366 138.249L286.241 134.074C286.282 133.934 286.34 133.821 286.404 133.736C286.471 133.654 286.571 133.582 286.701 133.533C286.832 133.479 287.012 133.442 287.243 133.425C287.472 133.406 287.775 133.398 288.153 133.398C288.658 133.398 289.046 133.411 289.326 133.434C289.601 133.456 289.79 133.51 289.894 133.605C289.993 133.695 290.016 133.835 289.966 134.02C289.912 134.205 289.808 134.457 289.646 134.773L284.97 144.089ZM301.659 144.112C301.659 145.117 301.524 146.033 301.262 146.863C300.996 147.688 300.595 148.405 300.058 149C299.522 149.6 298.849 150.064 298.038 150.389C297.226 150.713 296.279 150.876 295.197 150.876C294.151 150.876 293.24 150.731 292.464 150.443C291.689 150.15 291.044 149.726 290.534 149.171C290.025 148.617 289.646 147.936 289.398 147.124C289.15 146.317 289.028 145.392 289.028 144.351C289.028 143.345 289.163 142.43 289.429 141.596C289.7 140.766 290.101 140.053 290.638 139.458C291.179 138.863 291.847 138.403 292.654 138.078C293.461 137.749 294.403 137.587 295.49 137.587C296.545 137.587 297.461 137.731 298.236 138.015C299.012 138.304 299.652 138.723 300.157 139.278C300.667 139.832 301.041 140.518 301.289 141.325C301.533 142.137 301.659 143.066 301.659 144.112ZM298.236 144.247C298.236 143.665 298.191 143.129 298.097 142.642C298.006 142.15 297.848 141.726 297.627 141.366C297.407 141.005 297.114 140.721 296.748 140.522C296.383 140.319 295.923 140.216 295.368 140.216C294.877 140.216 294.444 140.306 294.074 140.486C293.704 140.666 293.402 140.933 293.163 141.28C292.924 141.627 292.748 142.047 292.627 142.533C292.509 143.025 292.451 143.58 292.451 144.206C292.451 144.788 292.496 145.32 292.595 145.812C292.69 146.299 292.847 146.723 293.064 147.088C293.281 147.449 293.574 147.728 293.943 147.927C294.313 148.125 294.769 148.224 295.314 148.224C295.819 148.224 296.252 148.13 296.626 147.949C296.996 147.769 297.298 147.507 297.537 147.165C297.772 146.822 297.948 146.407 298.065 145.915C298.178 145.428 298.236 144.869 298.236 144.247ZM315.467 150.123C315.467 150.213 315.444 150.289 315.399 150.357C315.354 150.42 315.277 150.479 315.169 150.52C315.056 150.565 314.912 150.596 314.732 150.619C314.551 150.641 314.326 150.655 314.051 150.655C313.762 150.655 313.523 150.641 313.343 150.619C313.162 150.596 313.022 150.565 312.914 150.52C312.811 150.479 312.734 150.42 312.689 150.357C312.648 150.289 312.626 150.213 312.626 150.123V148.765C311.972 149.469 311.309 149.996 310.637 150.348C309.961 150.7 309.266 150.876 308.545 150.876C307.733 150.876 307.052 150.745 306.502 150.479C305.952 150.218 305.505 149.857 305.167 149.397C304.829 148.941 304.585 148.409 304.441 147.805C304.297 147.201 304.225 146.452 304.225 145.555V138.34C304.225 138.254 304.247 138.173 304.297 138.11C304.342 138.042 304.432 137.988 304.558 137.943C304.689 137.898 304.861 137.866 305.073 137.844C305.289 137.821 305.555 137.812 305.875 137.812C306.2 137.812 306.47 137.821 306.678 137.844C306.89 137.866 307.061 137.898 307.187 137.943C307.318 137.988 307.408 138.042 307.458 138.11C307.512 138.173 307.539 138.254 307.539 138.34V145C307.539 145.613 307.58 146.087 307.656 146.412C307.737 146.736 307.859 147.016 308.022 147.25C308.184 147.485 308.391 147.665 308.639 147.791C308.892 147.922 309.185 147.985 309.519 147.985C309.943 147.985 310.367 147.832 310.795 147.521C311.223 147.214 311.679 146.763 312.161 146.173V138.34C312.161 138.254 312.188 138.173 312.233 138.11C312.283 138.042 312.373 137.988 312.499 137.943C312.626 137.898 312.797 137.866 313.009 137.844C313.221 137.821 313.487 137.812 313.812 137.812C314.141 137.812 314.407 137.821 314.619 137.844C314.831 137.866 314.998 137.898 315.119 137.943C315.246 137.988 315.331 138.042 315.386 138.11C315.44 138.173 315.467 138.254 315.467 138.34V150.123ZM326.379 139.435C326.379 139.756 326.37 140.013 326.352 140.216C326.334 140.419 326.307 140.576 326.271 140.693C326.24 140.806 326.19 140.888 326.136 140.928C326.077 140.973 326.005 140.996 325.915 140.996C325.847 140.996 325.766 140.982 325.68 140.951C325.59 140.919 325.491 140.888 325.383 140.851C325.27 140.815 325.148 140.784 325.018 140.752C324.887 140.721 324.742 140.707 324.58 140.707C324.395 140.707 324.21 140.743 324.025 140.815C323.84 140.892 323.651 141.009 323.453 141.167C323.254 141.325 323.047 141.537 322.83 141.803C322.614 142.064 322.384 142.394 322.136 142.777V150.123C322.136 150.213 322.113 150.289 322.059 150.357C322.005 150.42 321.915 150.479 321.789 150.52C321.658 150.565 321.491 150.596 321.279 150.619C321.067 150.641 320.801 150.655 320.472 150.655C320.147 150.655 319.877 150.641 319.669 150.619C319.457 150.596 319.286 150.565 319.16 150.52C319.029 150.479 318.939 150.42 318.889 150.357C318.835 150.289 318.808 150.213 318.808 150.123V138.34C318.808 138.254 318.831 138.173 318.876 138.11C318.921 138.042 318.997 137.988 319.115 137.943C319.227 137.898 319.376 137.866 319.557 137.844C319.737 137.821 319.963 137.812 320.238 137.812C320.517 137.812 320.751 137.821 320.936 137.844C321.121 137.866 321.266 137.898 321.365 137.943C321.469 137.988 321.541 138.042 321.581 138.11C321.626 138.173 321.649 138.254 321.649 138.34V139.805C321.956 139.368 322.249 139.002 322.519 138.719C322.794 138.43 323.056 138.204 323.299 138.038C323.547 137.871 323.795 137.753 324.039 137.686C324.287 137.618 324.535 137.587 324.779 137.587C324.896 137.587 325.018 137.596 325.148 137.609C325.284 137.618 325.419 137.641 325.559 137.672C325.698 137.704 325.825 137.74 325.928 137.78C326.037 137.817 326.113 137.862 326.163 137.902C326.208 137.947 326.244 137.997 326.267 138.051C326.289 138.101 326.307 138.173 326.325 138.268C326.343 138.358 326.357 138.497 326.366 138.682C326.375 138.867 326.379 139.12 326.379 139.435ZM344.872 145.446C344.872 146.344 344.705 147.133 344.372 147.814C344.038 148.49 343.583 149.059 343.01 149.509C342.437 149.965 341.77 150.303 341.003 150.533C340.237 150.763 339.416 150.876 338.546 150.876C337.955 150.876 337.405 150.831 336.9 150.731C336.395 150.637 335.948 150.52 335.56 150.384C335.173 150.245 334.848 150.105 334.586 149.951C334.329 149.803 334.14 149.672 334.027 149.554C333.91 149.442 333.829 149.275 333.784 149.063C333.734 148.847 333.712 148.535 333.712 148.13C333.712 147.854 333.721 147.629 333.734 147.444C333.752 147.259 333.784 147.106 333.82 146.993C333.86 146.88 333.914 146.799 333.982 146.75C334.045 146.7 334.122 146.678 334.212 146.678C334.334 146.678 334.51 146.75 334.735 146.894C334.956 147.038 335.245 147.201 335.601 147.376C335.953 147.552 336.372 147.715 336.859 147.859C337.351 148.003 337.914 148.076 338.559 148.076C338.983 148.076 339.362 148.026 339.696 147.927C340.029 147.823 340.313 147.679 340.548 147.494C340.778 147.309 340.958 147.083 341.08 146.808C341.206 146.533 341.265 146.231 341.265 145.897C341.265 145.51 341.161 145.176 340.949 144.901C340.737 144.621 340.462 144.373 340.124 144.161C339.786 143.945 339.398 143.742 338.969 143.553C338.537 143.363 338.09 143.16 337.635 142.953C337.175 142.741 336.728 142.497 336.3 142.231C335.867 141.961 335.484 141.641 335.141 141.266C334.803 140.892 334.528 140.45 334.316 139.941C334.104 139.427 334 138.818 334 138.101C334 137.285 334.153 136.563 334.456 135.941C334.758 135.323 335.168 134.804 335.687 134.398C336.201 133.988 336.81 133.681 337.508 133.479C338.208 133.276 338.952 133.176 339.736 133.176C340.138 133.176 340.543 133.203 340.949 133.267C341.355 133.33 341.734 133.411 342.085 133.519C342.437 133.623 342.748 133.745 343.024 133.875C343.299 134.006 343.479 134.119 343.565 134.205C343.655 134.295 343.713 134.367 343.745 134.43C343.776 134.493 343.799 134.574 343.822 134.674C343.844 134.777 343.862 134.904 343.871 135.057C343.876 135.21 343.88 135.404 343.88 135.634C343.88 135.887 343.876 136.103 343.862 136.279C343.849 136.455 343.826 136.599 343.795 136.716C343.768 136.829 343.722 136.915 343.664 136.964C343.605 137.018 343.529 137.046 343.434 137.046C343.335 137.046 343.181 136.982 342.969 136.861C342.757 136.739 342.5 136.604 342.189 136.459C341.882 136.311 341.526 136.18 341.121 136.062C340.715 135.941 340.273 135.882 339.786 135.882C339.407 135.882 339.078 135.927 338.798 136.022C338.514 136.112 338.279 136.243 338.09 136.405C337.901 136.567 337.761 136.761 337.666 136.991C337.576 137.221 337.527 137.465 337.527 137.717C337.527 138.096 337.63 138.425 337.838 138.705C338.045 138.98 338.325 139.228 338.672 139.444C339.019 139.661 339.411 139.864 339.853 140.049C340.295 140.238 340.742 140.441 341.202 140.653C341.657 140.865 342.108 141.104 342.55 141.37C342.987 141.641 343.38 141.961 343.722 142.335C344.065 142.709 344.345 143.151 344.557 143.656C344.769 144.166 344.872 144.761 344.872 145.446ZM358.283 150.136C358.283 150.226 358.256 150.303 358.211 150.371C358.161 150.434 358.071 150.488 357.945 150.528C357.819 150.569 357.643 150.596 357.422 150.619C357.205 150.641 356.917 150.655 356.565 150.655C356.204 150.655 355.911 150.646 355.686 150.628C355.46 150.61 355.275 150.578 355.131 150.542C354.987 150.501 354.874 150.447 354.793 150.375C354.716 150.303 354.644 150.213 354.585 150.1L350.658 143.891V150.123C350.658 150.213 350.635 150.289 350.581 150.357C350.527 150.42 350.437 150.479 350.311 150.52C350.18 150.565 350.013 150.596 349.801 150.619C349.589 150.641 349.323 150.655 348.994 150.655C348.669 150.655 348.399 150.641 348.191 150.619C347.979 150.596 347.808 150.565 347.682 150.52C347.551 150.479 347.461 150.42 347.411 150.357C347.357 150.289 347.33 150.213 347.33 150.123V132.753C347.33 132.662 347.357 132.586 347.411 132.514C347.461 132.441 347.551 132.383 347.682 132.338C347.808 132.288 347.979 132.252 348.191 132.225C348.399 132.198 348.669 132.184 348.994 132.184C349.323 132.184 349.589 132.198 349.801 132.225C350.013 132.252 350.18 132.288 350.311 132.338C350.437 132.383 350.527 132.441 350.581 132.514C350.635 132.586 350.658 132.662 350.658 132.753V143.097L354.148 138.407C354.216 138.299 354.297 138.209 354.387 138.128C354.473 138.051 354.59 137.988 354.734 137.943C354.879 137.898 355.063 137.866 355.275 137.844C355.492 137.821 355.767 137.812 356.101 137.812C356.43 137.812 356.705 137.821 356.93 137.844C357.151 137.866 357.332 137.898 357.471 137.943C357.607 137.988 357.702 138.042 357.756 138.11C357.805 138.173 357.832 138.258 357.832 138.353C357.832 138.484 357.801 138.628 357.733 138.777C357.67 138.926 357.571 139.084 357.435 139.251L353.99 143.16L357.977 149.334C358.085 149.509 358.161 149.658 358.211 149.789C358.256 149.915 358.283 150.033 358.283 150.136ZM363.645 150.123C363.645 150.213 363.622 150.289 363.568 150.357C363.514 150.42 363.424 150.479 363.298 150.52C363.167 150.565 363 150.596 362.788 150.619C362.576 150.641 362.31 150.655 361.981 150.655C361.656 150.655 361.386 150.641 361.178 150.619C360.966 150.596 360.795 150.565 360.669 150.52C360.538 150.479 360.448 150.42 360.398 150.357C360.344 150.289 360.317 150.213 360.317 150.123V138.367C360.317 138.277 360.344 138.2 360.398 138.137C360.448 138.069 360.538 138.011 360.669 137.965C360.795 137.916 360.966 137.88 361.178 137.853C361.386 137.826 361.656 137.812 361.981 137.812C362.31 137.812 362.576 137.826 362.788 137.853C363 137.88 363.167 137.916 363.298 137.965C363.424 138.011 363.514 138.069 363.568 138.137C363.622 138.2 363.645 138.277 363.645 138.367V150.123ZM363.897 134.349C363.897 135.021 363.762 135.481 363.487 135.738C363.217 135.995 362.707 136.121 361.967 136.121C361.219 136.121 360.718 135.999 360.457 135.751C360.195 135.503 360.064 135.061 360.064 134.417C360.064 133.749 360.2 133.285 360.47 133.023C360.736 132.762 361.246 132.631 361.994 132.631C362.734 132.631 363.239 132.757 363.501 133.01C363.767 133.262 363.897 133.709 363.897 134.349ZM370.292 150.123C370.292 150.213 370.269 150.289 370.215 150.357C370.161 150.42 370.071 150.479 369.944 150.52C369.814 150.565 369.647 150.596 369.435 150.619C369.223 150.641 368.957 150.655 368.628 150.655C368.303 150.655 368.032 150.641 367.825 150.619C367.613 150.596 367.442 150.565 367.315 150.52C367.185 150.479 367.095 150.42 367.045 150.357C366.991 150.289 366.964 150.213 366.964 150.123V132.753C366.964 132.662 366.991 132.586 367.045 132.514C367.095 132.441 367.185 132.383 367.315 132.338C367.442 132.288 367.613 132.252 367.825 132.225C368.032 132.198 368.303 132.184 368.628 132.184C368.957 132.184 369.223 132.198 369.435 132.225C369.647 132.252 369.814 132.288 369.944 132.338C370.071 132.383 370.161 132.441 370.215 132.514C370.269 132.586 370.292 132.662 370.292 132.753V150.123Z" fill="white"/>
<path d="M376.939 150.123C376.939 150.213 376.916 150.289 376.862 150.357C376.808 150.42 376.717 150.479 376.591 150.52C376.461 150.565 376.294 150.596 376.082 150.619C375.87 150.641 375.604 150.655 375.275 150.655C374.95 150.655 374.679 150.641 374.472 150.619C374.26 150.596 374.089 150.565 373.962 150.52C373.832 150.479 373.741 150.42 373.692 150.357C373.638 150.289 373.611 150.213 373.611 150.123V132.753C373.611 132.662 373.638 132.586 373.692 132.514C373.741 132.441 373.832 132.383 373.962 132.338C374.089 132.288 374.26 132.252 374.472 132.225C374.679 132.198 374.95 132.184 375.275 132.184C375.604 132.184 375.87 132.198 376.082 132.225C376.294 132.252 376.461 132.288 376.591 132.338C376.717 132.383 376.808 132.441 376.862 132.514C376.916 132.586 376.939 132.662 376.939 132.753V150.123Z" fill="white"/>
<path fill-rule="evenodd" clip-rule="evenodd" d="M374.576 57.4281V57.4272H374.578C374.578 56.2429 374.096 55.1689 373.318 54.3904C372.539 53.6127 371.466 53.1305 370.284 53.1305V53.1324H370.281H370.28V53.1305C369.096 53.1305 368.022 53.6128 367.243 54.3913C366.466 55.1698 365.983 56.2429 365.983 57.4264H365.985V57.4289V57.4298H365.983C365.983 58.22 366.198 58.9619 366.57 59.5973C367.315 60.8704 368.698 61.7254 370.278 61.7264V61.7245H370.281H370.282V61.7264C371.466 61.7264 372.54 61.2442 373.318 60.4657C373.446 60.3375 373.566 60.2031 373.674 60.0636C374.239 59.3357 374.576 58.4211 374.576 57.4281ZM368.365 59.6275V55.0916H370.702C371.135 55.0916 371.466 55.1289 371.695 55.2037C371.924 55.2776 372.108 55.4145 372.249 55.6165C372.389 55.8175 372.459 56.0623 372.459 56.3505C372.459 56.6033 372.405 56.8195 372.299 57.0019C372.191 57.1842 372.043 57.332 371.856 57.4468C371.736 57.5188 371.572 57.5785 371.364 57.6247C371.531 57.6807 371.652 57.7367 371.729 57.7929C371.78 57.8302 371.855 57.9094 371.953 58.0304C372.051 58.1531 372.117 58.2458 372.15 58.3124L372.828 59.6275H371.244L370.494 58.2404C370.399 58.0624 370.315 57.945 370.24 57.8907C370.139 57.8212 370.024 57.7857 369.896 57.7857H369.773V59.6267H368.365V59.6275ZM369.774 56.929H370.365C370.428 56.929 370.552 56.9085 370.736 56.8674C370.829 56.8489 370.905 56.8008 370.964 56.7252C371.022 56.6495 371.052 56.5614 371.052 56.4627C371.052 56.316 371.006 56.2037 370.913 56.1255C370.819 56.0463 370.646 56.0071 370.389 56.0071H369.774V56.929ZM375.745 57.4272H375.747V57.4281C375.747 58.6905 375.318 59.8544 374.598 60.7805C374.456 60.962 374.305 61.1339 374.146 61.293C373.158 62.2807 371.792 62.892 370.282 62.8928V62.8954H370.281H370.278V62.8928C368.268 62.892 366.511 61.8055 365.563 60.188C365.089 59.3783 364.817 58.4351 364.817 57.4298H364.814V57.4289V57.4264H364.817C364.817 55.9155 365.428 54.5497 366.416 53.5631C367.402 52.5754 368.769 51.9641 370.28 51.9641V51.9615H370.281H370.284V51.9641C371.793 51.965 373.159 52.5754 374.146 53.5631C375.133 54.5497 375.745 55.9164 375.745 57.4272Z" fill="white"/>
</svg>
